<svg width="1440" height="2028" viewBox="0 0 1440 2028" fill="none" xmlns="http://www.w3.org/2000/svg">
<g clip-path="url(#clip0_164_10055)">
<path d="M1439 -67H-6V2028H1439V-67Z" fill="url(#paint0_linear_164_10055)"/>
<path d="M209.179 687H119.821C113.845 687 109 691.801 109 697.723V786.277C109 792.199 113.845 797 119.821 797H209.179C215.155 797 220 792.199 220 786.277V697.723C220 691.801 215.155 687 209.179 687Z" stroke="white" stroke-opacity="0.04" stroke-width="2.78762"/>
<path d="M209.179 911H119.821C113.845 911 109 915.845 109 921.821V1011.18C109 1017.16 113.845 1022 119.821 1022H209.179C215.155 1022 220 1017.16 220 1011.18V921.821C220 915.845 215.155 911 209.179 911Z" stroke="white" stroke-opacity="0.04" stroke-width="2.78762"/>
<path d="M209.179 1472H119.821C113.845 1472 109 1476.84 109 1482.82V1572.18C109 1578.16 113.845 1583 119.821 1583H209.179C215.155 1583 220 1578.16 220 1572.18V1482.82C220 1476.84 215.155 1472 209.179 1472Z" stroke="white" stroke-opacity="0.04" stroke-width="2.78762"/>
<path d="M209.082 127H118.918C112.888 127 108 131.888 108 137.918V228.082C108 234.112 112.888 239 118.918 239H209.082C215.112 239 220 234.112 220 228.082V137.918C220 131.888 215.112 127 209.082 127Z" stroke="white" stroke-opacity="0.04" stroke-width="2.78762"/>
<path d="M209.082 1916H118.918C112.888 1916 108 1920.89 108 1926.92V2017.08C108 2023.11 112.888 2028 118.918 2028H209.082C215.112 2028 220 2023.11 220 2017.08V1926.92C220 1920.89 215.112 1916 209.082 1916Z" stroke="white" stroke-opacity="0.04" stroke-width="2.78762"/>
<path d="M209.179 1134H119.821C113.845 1134 109 1138.8 109 1144.72V1233.28C109 1239.2 113.845 1244 119.821 1244H209.179C215.155 1244 220 1239.2 220 1233.28V1144.72C220 1138.8 215.155 1134 209.179 1134Z" stroke="white" stroke-opacity="0.04" stroke-width="2.78762"/>
<path d="M209.179 1694H119.821C113.845 1694 109 1698.8 109 1704.72V1793.28C109 1799.2 113.845 1804 119.821 1804H209.179C215.155 1804 220 1799.2 220 1793.28V1704.72C220 1698.8 215.155 1694 209.179 1694Z" stroke="white" stroke-opacity="0.04" stroke-width="2.78762"/>
<path d="M209.179 464H119.821C113.845 464 109 468.801 109 474.723V563.277C109 569.199 113.845 574 119.821 574H209.179C215.155 574 220 569.199 220 563.277V474.723C220 468.801 215.155 464 209.179 464Z" stroke="white" stroke-opacity="0.04" stroke-width="2.78762"/>
<path d="M209.179 356H119.821C113.845 356 109 360.801 109 366.723V455.277C109 461.199 113.845 466 119.821 466H209.179C215.155 466 220 461.199 220 455.277V366.723C220 360.801 215.155 356 209.179 356Z" stroke="white" stroke-opacity="0.04" stroke-width="2.78762"/>
<path d="M655.082 911H564.918C558.888 911 554 915.845 554 921.821V1011.18C554 1017.16 558.888 1022 564.918 1022H655.082C661.112 1022 666 1017.16 666 1011.18V921.821C666 915.845 661.112 911 655.082 911Z" stroke="white" stroke-opacity="0.04" stroke-width="2.78762"/>
<path d="M655.082 1472H564.918C558.888 1472 554 1476.84 554 1482.82V1572.18C554 1578.16 558.888 1583 564.918 1583H655.082C661.112 1583 666 1578.16 666 1572.18V1482.82C666 1476.84 661.112 1472 655.082 1472Z" stroke="white" stroke-opacity="0.04" stroke-width="2.78762"/>
<path d="M655.082 799H564.918C558.888 799 554 803.845 554 809.821V899.179C554 905.155 558.888 910 564.918 910H655.082C661.112 910 666 905.155 666 899.179V809.821C666 803.845 661.112 799 655.082 799Z" stroke="white" stroke-opacity="0.04" stroke-width="2.78762"/>
<path d="M655.082 1360H564.918C558.888 1360 554 1364.84 554 1370.82V1460.18C554 1466.16 558.888 1471 564.918 1471H655.082C661.112 1471 666 1466.16 666 1460.18V1370.82C666 1364.84 661.112 1360 655.082 1360Z" stroke="white" stroke-opacity="0.04" stroke-width="2.78762"/>
<path d="M655.082 1916H564.918C558.888 1916 554 1920.89 554 1926.92V2017.08C554 2023.11 558.888 2028 564.918 2028H655.082C661.112 2028 666 2023.11 666 2017.08V1926.92C666 1920.89 661.112 1916 655.082 1916Z" stroke="white" stroke-opacity="0.04" stroke-width="2.78762"/>
<path d="M655.082 1134H564.918C558.888 1134 554 1138.8 554 1144.72V1233.28C554 1239.2 558.888 1244 564.918 1244H655.082C661.112 1244 666 1239.2 666 1233.28V1144.72C666 1138.8 661.112 1134 655.082 1134Z" stroke="white" stroke-opacity="0.04" stroke-width="2.78762"/>
<path d="M655.082 1694H564.918C558.888 1694 554 1698.8 554 1704.72V1793.28C554 1799.2 558.888 1804 564.918 1804H655.082C661.112 1804 666 1799.2 666 1793.28V1704.72C666 1698.8 661.112 1694 655.082 1694Z" stroke="white" stroke-opacity="0.04" stroke-width="2.78762"/>
<path d="M655.082 464H564.918C558.888 464 554 468.801 554 474.723V563.277C554 569.199 558.888 574 564.918 574H655.082C661.112 574 666 569.199 666 563.277V474.723C666 468.801 661.112 464 655.082 464Z" stroke="white" stroke-opacity="0.04" stroke-width="2.78762"/>
<path d="M655.082 356H564.918C558.888 356 554 360.801 554 366.723V455.277C554 461.199 558.888 466 564.918 466H655.082C661.112 466 666 461.199 666 455.277V366.723C666 360.801 661.112 356 655.082 356Z" stroke="white" stroke-opacity="0.04" stroke-width="2.78762"/>
<path d="M1100.08 687H1009.92C1003.89 687 999 691.801 999 697.723V786.277C999 792.199 1003.89 797 1009.92 797H1100.08C1106.11 797 1111 792.199 1111 786.277V697.723C1111 691.801 1106.11 687 1100.08 687Z" stroke="white" stroke-opacity="0.04" stroke-width="2.78762"/>
<path d="M1100.08 911H1009.92C1003.89 911 999 915.845 999 921.821V1011.18C999 1017.16 1003.89 1022 1009.92 1022H1100.08C1106.11 1022 1111 1017.16 1111 1011.18V921.821C1111 915.845 1106.11 911 1100.08 911Z" stroke="white" stroke-opacity="0.04" stroke-width="2.78762"/>
<path d="M1100.08 1472H1009.92C1003.89 1472 999 1476.84 999 1482.82V1572.18C999 1578.16 1003.89 1583 1009.92 1583H1100.08C1106.11 1583 1111 1578.16 1111 1572.18V1482.82C1111 1476.84 1106.11 1472 1100.08 1472Z" stroke="white" stroke-opacity="0.04" stroke-width="2.78762"/>
<path d="M1099.18 1916H1009.82C1003.84 1916 999 1920.89 999 1926.92V2017.08C999 2023.11 1003.84 2028 1009.82 2028H1099.18C1105.16 2028 1110 2023.11 1110 2017.08V1926.92C1110 1920.89 1105.16 1916 1099.18 1916Z" stroke="white" stroke-opacity="0.04" stroke-width="2.78762"/>
<path d="M1100.08 1134H1009.92C1003.89 1134 999 1138.8 999 1144.72V1233.28C999 1239.2 1003.89 1244 1009.92 1244H1100.08C1106.11 1244 1111 1239.2 1111 1233.28V1144.72C1111 1138.8 1106.11 1134 1100.08 1134Z" stroke="white" stroke-opacity="0.04" stroke-width="2.78762"/>
<path d="M1100.08 1694H1009.92C1003.89 1694 999 1698.8 999 1704.72V1793.28C999 1799.2 1003.89 1804 1009.92 1804H1100.08C1106.11 1804 1111 1799.2 1111 1793.28V1704.72C1111 1698.8 1106.11 1694 1100.08 1694Z" stroke="white" stroke-opacity="0.04" stroke-width="2.78762"/>
<path d="M1100.08 464H1009.92C1003.89 464 999 468.801 999 474.723V563.277C999 569.199 1003.89 574 1009.92 574H1100.08C1106.11 574 1111 569.199 1111 563.277V474.723C1111 468.801 1106.11 464 1100.08 464Z" stroke="white" stroke-opacity="0.04" stroke-width="2.78762"/>
<path d="M1100.08 356H1009.92C1003.89 356 999 360.801 999 366.723V455.277C999 461.199 1003.89 466 1009.92 466H1100.08C1106.11 466 1111 461.199 1111 455.277V366.723C1111 360.801 1106.11 356 1100.08 356Z" stroke="white" stroke-opacity="0.04" stroke-width="2.78762"/>
<path d="M432.179 687H342.821C336.845 687 332 691.801 332 697.723V786.277C332 792.199 336.845 797 342.821 797H432.179C438.155 797 443 792.199 443 786.277V697.723C443 691.801 438.155 687 432.179 687Z" stroke="white" stroke-opacity="0.04" stroke-width="2.78762"/>
<path d="M432.179 911H342.821C336.845 911 332 915.845 332 921.821V1011.18C332 1017.16 336.845 1022 342.821 1022H432.179C438.155 1022 443 1017.16 443 1011.18V921.821C443 915.845 438.155 911 432.179 911Z" stroke="white" stroke-opacity="0.04" stroke-width="2.78762"/>
<path d="M432.179 1472H342.821C336.845 1472 332 1476.84 332 1482.82V1572.18C332 1578.16 336.845 1583 342.821 1583H432.179C438.155 1583 443 1578.16 443 1572.18V1482.82C443 1476.84 438.155 1472 432.179 1472Z" stroke="white" stroke-opacity="0.04" stroke-width="2.78762"/>
<path d="M431.277 1916H342.723C336.801 1916 332 1920.89 332 1926.92V2017.08C332 2023.11 336.801 2028 342.723 2028H431.277C437.199 2028 442 2023.11 442 2017.08V1926.92C442 1920.89 437.199 1916 431.277 1916Z" stroke="white" stroke-opacity="0.04" stroke-width="2.78762"/>
<path d="M432.179 1134H342.821C336.845 1134 332 1138.8 332 1144.72V1233.28C332 1239.2 336.845 1244 342.821 1244H432.179C438.155 1244 443 1239.2 443 1233.28V1144.72C443 1138.8 438.155 1134 432.179 1134Z" stroke="white" stroke-opacity="0.04" stroke-width="2.78762"/>
<path d="M432.179 1694H342.821C336.845 1694 332 1698.8 332 1704.72V1793.28C332 1799.2 336.845 1804 342.821 1804H432.179C438.155 1804 443 1799.2 443 1793.28V1704.72C443 1698.8 438.155 1694 432.179 1694Z" stroke="white" stroke-opacity="0.04" stroke-width="2.78762"/>
<path d="M432.179 464H342.821C336.845 464 332 468.801 332 474.723V563.277C332 569.199 336.845 574 342.821 574H432.179C438.155 574 443 569.199 443 563.277V474.723C443 468.801 438.155 464 432.179 464Z" stroke="white" stroke-opacity="0.04" stroke-width="2.78762"/>
<path d="M432.179 356H342.821C336.845 356 332 360.801 332 366.723V455.277C332 461.199 336.845 466 342.821 466H432.179C438.155 466 443 461.199 443 455.277V366.723C443 360.801 438.155 356 432.179 356Z" stroke="white" stroke-opacity="0.04" stroke-width="2.78762"/>
<path d="M876.277 911H787.723C781.801 911 777 915.845 777 921.821V1011.18C777 1017.16 781.801 1022 787.723 1022H876.277C882.199 1022 887 1017.16 887 1011.18V921.821C887 915.845 882.199 911 876.277 911Z" stroke="white" stroke-opacity="0.04" stroke-width="2.78762"/>
<path d="M876.277 1472H787.723C781.801 1472 777 1476.84 777 1482.82V1572.18C777 1578.16 781.801 1583 787.723 1583H876.277C882.199 1583 887 1578.16 887 1572.18V1482.82C887 1476.84 882.199 1472 876.277 1472Z" stroke="white" stroke-opacity="0.04" stroke-width="2.78762"/>
<path d="M876.277 799H787.723C781.801 799 777 803.845 777 809.821V899.179C777 905.155 781.801 910 787.723 910H876.277C882.199 910 887 905.155 887 899.179V809.821C887 803.845 882.199 799 876.277 799Z" stroke="white" stroke-opacity="0.04" stroke-width="2.78762"/>
<path d="M876.277 1360H787.723C781.801 1360 777 1364.84 777 1370.82V1460.18C777 1466.16 781.801 1471 787.723 1471H876.277C882.199 1471 887 1466.16 887 1460.18V1370.82C887 1364.84 882.199 1360 876.277 1360Z" stroke="white" stroke-opacity="0.04" stroke-width="2.78762"/>
<path d="M876.277 1916H787.723C781.801 1916 777 1920.89 777 1926.92V2017.08C777 2023.11 781.801 2028 787.723 2028H876.277C882.199 2028 887 2023.11 887 2017.08V1926.92C887 1920.89 882.199 1916 876.277 1916Z" stroke="white" stroke-opacity="0.04" stroke-width="2.78762"/>
<path d="M877.179 1134H787.821C781.845 1134 777 1138.8 777 1144.72V1233.28C777 1239.2 781.845 1244 787.821 1244H877.179C883.155 1244 888 1239.2 888 1233.28V1144.72C888 1138.8 883.155 1134 877.179 1134Z" stroke="white" stroke-opacity="0.04" stroke-width="2.78762"/>
<path d="M877.179 1694H787.821C781.845 1694 777 1698.8 777 1704.72V1793.28C777 1799.2 781.845 1804 787.821 1804H877.179C883.155 1804 888 1799.2 888 1793.28V1704.72C888 1698.8 883.155 1694 877.179 1694Z" stroke="white" stroke-opacity="0.04" stroke-width="2.78762"/>
<path d="M877.179 464H787.821C781.845 464 777 468.801 777 474.723V563.277C777 569.199 781.845 574 787.821 574H877.179C883.155 574 888 569.199 888 563.277V474.723C888 468.801 883.155 464 877.179 464Z" stroke="white" stroke-opacity="0.04" stroke-width="2.78762"/>
<path d="M877.179 356H787.821C781.845 356 777 360.801 777 366.723V455.277C777 461.199 781.845 466 787.821 466H877.179C883.155 466 888 461.199 888 455.277V366.723C888 360.801 883.155 356 877.179 356Z" stroke="white" stroke-opacity="0.04" stroke-width="2.78762"/>
<path d="M1322.28 464H1233.72C1227.8 464 1223 468.845 1223 474.821V564.179C1223 570.155 1227.8 575 1233.72 575H1322.28C1328.2 575 1333 570.155 1333 564.179V474.821C1333 468.845 1328.2 464 1322.28 464Z" stroke="white" stroke-opacity="0.04" stroke-width="2.78762"/>
<path d="M1322.28 355H1233.72C1227.8 355 1223 359.845 1223 365.821V455.179C1223 461.155 1227.8 466 1233.72 466H1322.28C1328.2 466 1333 461.155 1333 455.179V365.821C1333 359.845 1328.2 355 1322.28 355Z" stroke="white" stroke-opacity="0.04" stroke-width="2.78762"/>
<path d="M1322.28 687H1233.72C1227.8 687 1223 691.801 1223 697.723V786.277C1223 792.199 1227.8 797 1233.72 797H1322.28C1328.2 797 1333 792.199 1333 786.277V697.723C1333 691.801 1328.2 687 1322.28 687Z" stroke="white" stroke-opacity="0.04" stroke-width="2.78762"/>
<path d="M1322.28 911H1233.72C1227.8 911 1223 915.845 1223 921.821V1011.18C1223 1017.16 1227.8 1022 1233.72 1022H1322.28C1328.2 1022 1333 1017.16 1333 1011.18V921.821C1333 915.845 1328.2 911 1322.28 911Z" stroke="white" stroke-opacity="0.04" stroke-width="2.78762"/>
<path d="M1322.28 1472H1233.72C1227.8 1472 1223 1476.84 1223 1482.82V1572.18C1223 1578.16 1227.8 1583 1233.72 1583H1322.28C1328.2 1583 1333 1578.16 1333 1572.18V1482.82C1333 1476.84 1328.2 1472 1322.28 1472Z" stroke="white" stroke-opacity="0.04" stroke-width="2.78762"/>
<path d="M1322.18 127H1232.82C1226.84 127 1222 131.888 1222 137.918V228.082C1222 234.112 1226.84 239 1232.82 239H1322.18C1328.16 239 1333 234.112 1333 228.082V137.918C1333 131.888 1328.16 127 1322.18 127Z" stroke="white" stroke-opacity="0.04" stroke-width="2.78762"/>
<path d="M1322.18 1916H1232.82C1226.84 1916 1222 1920.89 1222 1926.92V2017.08C1222 2023.11 1226.84 2028 1232.82 2028H1322.18C1328.16 2028 1333 2023.11 1333 2017.08V1926.92C1333 1920.89 1328.16 1916 1322.18 1916Z" stroke="white" stroke-opacity="0.04" stroke-width="2.78762"/>
<path d="M1322.28 1134H1233.72C1227.8 1134 1223 1138.8 1223 1144.72V1233.28C1223 1239.2 1227.8 1244 1233.72 1244H1322.28C1328.2 1244 1333 1239.2 1333 1233.28V1144.72C1333 1138.8 1328.2 1134 1322.28 1134Z" stroke="white" stroke-opacity="0.04" stroke-width="2.78762"/>
<path d="M1322.28 1694H1233.72C1227.8 1694 1223 1698.8 1223 1704.72V1793.28C1223 1799.2 1227.8 1804 1233.72 1804H1322.28C1328.2 1804 1333 1799.2 1333 1793.28V1704.72C1333 1698.8 1328.2 1694 1322.28 1694Z" stroke="white" stroke-opacity="0.04" stroke-width="2.78762"/>
<path d="M1322.28 464H1233.72C1227.8 464 1223 468.801 1223 474.723V563.277C1223 569.199 1227.8 574 1233.72 574H1322.28C1328.2 574 1333 569.199 1333 563.277V474.723C1333 468.801 1328.2 464 1322.28 464Z" stroke="white" stroke-opacity="0.04" stroke-width="2.78762"/>
<path d="M1322.28 356H1233.72C1227.8 356 1223 360.801 1223 366.723V455.277C1223 461.199 1227.8 466 1233.72 466H1322.28C1328.2 466 1333 461.199 1333 455.277V366.723C1333 360.801 1328.2 356 1322.28 356Z" stroke="white" stroke-opacity="0.04" stroke-width="2.78762"/>
<path d="M209.179 355H119.821C113.845 355 109 359.888 109 365.918V456.082C109 462.112 113.845 467 119.821 467H209.179C215.155 467 220 462.112 220 456.082V365.918C220 359.888 215.155 355 209.179 355Z" stroke="url(#paint1_linear_164_10055)" stroke-opacity="0.04" stroke-width="2.78762"/>
<path d="M209.179 578H119.821C113.845 578 109 582.888 109 588.918V679.082C109 685.112 113.845 690 119.821 690H209.179C215.155 690 220 685.112 220 679.082V588.918C220 582.888 215.155 578 209.179 578Z" stroke="white" stroke-opacity="0.04" stroke-width="2.78762"/>
<path d="M209.179 799H119.821C113.845 799 109 803.845 109 809.821V899.179C109 905.155 113.845 910 119.821 910H209.179C215.155 910 220 905.155 220 899.179V809.821C220 803.845 215.155 799 209.179 799Z" stroke="white" stroke-opacity="0.04" stroke-width="2.78762"/>
<path d="M209.179 1360H119.821C113.845 1360 109 1364.84 109 1370.82V1460.18C109 1466.16 113.845 1471 119.821 1471H209.179C215.155 1471 220 1466.16 220 1460.18V1370.82C220 1364.84 215.155 1360 209.179 1360Z" stroke="white" stroke-opacity="0.04" stroke-width="2.78762"/>
<path d="M209.179 15H119.821C113.845 15 109 19.8883 109 25.9182V116.082C109 122.112 113.845 127 119.821 127H209.179C215.155 127 220 122.112 220 116.082V25.9182C220 19.8883 215.155 15 209.179 15Z" stroke="white" stroke-opacity="0.04" stroke-width="2.78762"/>
<path d="M209.179 1805H119.821C113.845 1805 109 1809.89 109 1815.92V1906.08C109 1912.11 113.845 1917 119.821 1917H209.179C215.155 1917 220 1912.11 220 1906.08V1815.92C220 1809.89 215.155 1805 209.179 1805Z" stroke="white" stroke-opacity="0.04" stroke-width="2.78762"/>
<path d="M209.179 1023H119.821C113.845 1023 109 1027.84 109 1033.82V1123.18C109 1129.16 113.845 1134 119.821 1134H209.179C215.155 1134 220 1129.16 220 1123.18V1033.82C220 1027.84 215.155 1023 209.179 1023Z" stroke="white" stroke-opacity="0.04" stroke-width="2.78762"/>
<path d="M209.179 1584H119.821C113.845 1584 109 1588.84 109 1594.82V1684.18C109 1690.16 113.845 1695 119.821 1695H209.179C215.155 1695 220 1690.16 220 1684.18V1594.82C220 1588.84 215.155 1584 209.179 1584Z" stroke="white" stroke-opacity="0.04" stroke-width="2.78762"/>
<path d="M209.082 239H118.918C112.888 239 108 243.845 108 249.821V339.179C108 345.155 112.888 350 118.918 350H209.082C215.112 350 220 345.155 220 339.179V249.821C220 243.845 215.112 239 209.082 239Z" stroke="white" stroke-opacity="0.04" stroke-width="2.78762"/>
<path d="M209.179 1246H119.821C113.845 1246 109 1250.84 109 1256.82V1346.18C109 1352.16 113.845 1357 119.821 1357H209.179C215.155 1357 220 1352.16 220 1346.18V1256.82C220 1250.84 215.155 1246 209.179 1246Z" stroke="white" stroke-opacity="0.04" stroke-width="2.78762"/>
<path d="M209.179 579H119.821C113.845 579 109 583.845 109 589.821V679.179C109 685.155 113.845 690 119.821 690H209.179C215.155 690 220 685.155 220 679.179V589.821C220 583.845 215.155 579 209.179 579Z" stroke="white" stroke-opacity="0.04" stroke-width="2.78762"/>
<path d="M655.179 1805H565.821C559.845 1805 555 1809.89 555 1815.92V1906.08C555 1912.11 559.845 1917 565.821 1917H655.179C661.155 1917 666 1912.11 666 1906.08V1815.92C666 1809.89 661.155 1805 655.179 1805Z" stroke="white" stroke-opacity="0.04" stroke-width="2.78762"/>
<path d="M655.082 1023H564.918C558.888 1023 554 1027.84 554 1033.82V1123.18C554 1129.16 558.888 1134 564.918 1134H655.082C661.112 1134 666 1129.16 666 1123.18V1033.82C666 1027.84 661.112 1023 655.082 1023Z" stroke="white" stroke-opacity="0.04" stroke-width="2.78762"/>
<path d="M655.082 1584H564.918C558.888 1584 554 1588.84 554 1594.82V1684.18C554 1690.16 558.888 1695 564.918 1695H655.082C661.112 1695 666 1690.16 666 1684.18V1594.82C666 1588.84 661.112 1584 655.082 1584Z" stroke="white" stroke-opacity="0.04" stroke-width="2.78762"/>
<path d="M655.082 1246H564.918C558.888 1246 554 1250.84 554 1256.82V1346.18C554 1352.16 558.888 1357 564.918 1357H655.082C661.112 1357 666 1352.16 666 1346.18V1256.82C666 1250.84 661.112 1246 655.082 1246Z" stroke="white" stroke-opacity="0.04" stroke-width="2.78762"/>
<path d="M544.082 687H453.918C447.888 687 443 691.845 443 697.821V787.179C443 793.155 447.888 798 453.918 798H544.082C550.112 798 555 793.155 555 787.179V697.821C555 691.845 550.112 687 544.082 687Z" stroke="white" stroke-opacity="0.04" stroke-width="2.78762"/>
<path d="M655.082 579H564.918C558.888 579 554 583.845 554 589.821V679.179C554 685.155 558.888 690 564.918 690H655.082C661.112 690 666 685.155 666 679.179V589.821C666 583.845 661.112 579 655.082 579Z" stroke="white" stroke-opacity="0.04" stroke-width="2.78762"/>
<path d="M1100.08 799H1009.92C1003.89 799 999 803.845 999 809.821V899.179C999 905.155 1003.89 910 1009.92 910H1100.08C1106.11 910 1111 905.155 1111 899.179V809.821C1111 803.845 1106.11 799 1100.08 799Z" stroke="white" stroke-opacity="0.04" stroke-width="2.78762"/>
<path d="M1100.08 1360H1009.92C1003.89 1360 999 1364.84 999 1370.82V1460.18C999 1466.16 1003.89 1471 1009.92 1471H1100.08C1106.11 1471 1111 1466.16 1111 1460.18V1370.82C1111 1364.84 1106.11 1360 1100.08 1360Z" stroke="white" stroke-opacity="0.04" stroke-width="2.78762"/>
<path d="M1100.08 1805H1009.92C1003.89 1805 999 1809.89 999 1815.92V1906.08C999 1912.11 1003.89 1917 1009.92 1917H1100.08C1106.11 1917 1111 1912.11 1111 1906.08V1815.92C1111 1809.89 1106.11 1805 1100.08 1805Z" stroke="white" stroke-opacity="0.04" stroke-width="2.78762"/>
<path d="M1100.08 1023H1009.92C1003.89 1023 999 1027.84 999 1033.82V1123.18C999 1129.16 1003.89 1134 1009.92 1134H1100.08C1106.11 1134 1111 1129.16 1111 1123.18V1033.82C1111 1027.84 1106.11 1023 1100.08 1023Z" stroke="white" stroke-opacity="0.04" stroke-width="2.78762"/>
<path d="M1100.08 1584H1009.92C1003.89 1584 999 1588.84 999 1594.82V1684.18C999 1690.16 1003.89 1695 1009.92 1695H1100.08C1106.11 1695 1111 1690.16 1111 1684.18V1594.82C1111 1588.84 1106.11 1584 1100.08 1584Z" stroke="white" stroke-opacity="0.04" stroke-width="2.78762"/>
<path d="M1099.18 239H1009.82C1003.84 239 999 243.845 999 249.821V339.179C999 345.155 1003.84 350 1009.82 350H1099.18C1105.16 350 1110 345.155 1110 339.179V249.821C1110 243.845 1105.16 239 1099.18 239Z" stroke="white" stroke-opacity="0.04" stroke-width="2.78762"/>
<path d="M1100.08 1246H1009.92C1003.89 1246 999 1250.84 999 1256.82V1346.18C999 1352.16 1003.89 1357 1009.92 1357H1100.08C1106.11 1357 1111 1352.16 1111 1346.18V1256.82C1111 1250.84 1106.11 1246 1100.08 1246Z" stroke="white" stroke-opacity="0.04" stroke-width="2.78762"/>
<path d="M1100.08 579H1009.92C1003.89 579 999 583.845 999 589.821V679.179C999 685.155 1003.89 690 1009.92 690H1100.08C1106.11 690 1111 685.155 1111 679.179V589.821C1111 583.845 1106.11 579 1100.08 579Z" stroke="white" stroke-opacity="0.04" stroke-width="2.78762"/>
<path d="M432.179 799H342.821C336.845 799 332 803.845 332 809.821V899.179C332 905.155 336.845 910 342.821 910H432.179C438.155 910 443 905.155 443 899.179V809.821C443 803.845 438.155 799 432.179 799Z" stroke="white" stroke-opacity="0.04" stroke-width="2.78762"/>
<path d="M432.179 1360H342.821C336.845 1360 332 1364.84 332 1370.82V1460.18C332 1466.16 336.845 1471 342.821 1471H432.179C438.155 1471 443 1466.16 443 1460.18V1370.82C443 1364.84 438.155 1360 432.179 1360Z" stroke="white" stroke-opacity="0.04" stroke-width="2.78762"/>
<path d="M432.179 1805H342.821C336.845 1805 332 1809.89 332 1815.92V1906.08C332 1912.11 336.845 1917 342.821 1917H432.179C438.155 1917 443 1912.11 443 1906.08V1815.92C443 1809.89 438.155 1805 432.179 1805Z" stroke="white" stroke-opacity="0.04" stroke-width="2.78762"/>
<path d="M432.179 1023H342.821C336.845 1023 332 1027.84 332 1033.82V1123.18C332 1129.16 336.845 1134 342.821 1134H432.179C438.155 1134 443 1129.16 443 1123.18V1033.82C443 1027.84 438.155 1023 432.179 1023Z" stroke="white" stroke-opacity="0.04" stroke-width="2.78762"/>
<path d="M432.179 1584H342.821C336.845 1584 332 1588.84 332 1594.82V1684.18C332 1690.16 336.845 1695 342.821 1695H432.179C438.155 1695 443 1690.16 443 1684.18V1594.82C443 1588.84 438.155 1584 432.179 1584Z" stroke="white" stroke-opacity="0.04" stroke-width="2.78762"/>
<path d="M431.277 239H342.723C336.801 239 332 243.845 332 249.821V339.179C332 345.155 336.801 350 342.723 350H431.277C437.199 350 442 345.155 442 339.179V249.821C442 243.845 437.199 239 431.277 239Z" stroke="white" stroke-opacity="0.04" stroke-width="2.78762"/>
<path d="M432.179 1246H342.821C336.845 1246 332 1250.84 332 1256.82V1346.18C332 1352.16 336.845 1357 342.821 1357H432.179C438.155 1357 443 1352.16 443 1346.18V1256.82C443 1250.84 438.155 1246 432.179 1246Z" stroke="white" stroke-opacity="0.04" stroke-width="2.78762"/>
<path d="M432.179 579H342.821C336.845 579 332 583.845 332 589.821V679.179C332 685.155 336.845 690 342.821 690H432.179C438.155 690 443 685.155 443 679.179V589.821C443 583.845 438.155 579 432.179 579Z" stroke="white" stroke-opacity="0.04" stroke-width="2.78762"/>
<path d="M877.179 1805H787.821C781.845 1805 777 1809.89 777 1815.92V1906.08C777 1912.11 781.845 1917 787.821 1917H877.179C883.155 1917 888 1912.11 888 1906.08V1815.92C888 1809.89 883.155 1805 877.179 1805Z" stroke="white" stroke-opacity="0.04" stroke-width="2.78762"/>
<path d="M876.277 1023H787.723C781.801 1023 777 1027.84 777 1033.82V1123.18C777 1129.16 781.801 1134 787.723 1134H876.277C882.199 1134 887 1129.16 887 1123.18V1033.82C887 1027.84 882.199 1023 876.277 1023Z" stroke="white" stroke-opacity="0.04" stroke-width="2.78762"/>
<path d="M876.277 1584H787.723C781.801 1584 777 1588.84 777 1594.82V1684.18C777 1690.16 781.801 1695 787.723 1695H876.277C882.199 1695 887 1690.16 887 1684.18V1594.82C887 1588.84 882.199 1584 876.277 1584Z" stroke="white" stroke-opacity="0.04" stroke-width="2.78762"/>
<path d="M877.179 1246H787.821C781.845 1246 777 1250.84 777 1256.82V1346.18C777 1352.16 781.845 1357 787.821 1357H877.179C883.155 1357 888 1352.16 888 1346.18V1256.82C888 1250.84 883.155 1246 877.179 1246Z" stroke="white" stroke-opacity="0.04" stroke-width="2.78762"/>
<path d="M766.179 687H676.821C670.845 687 666 691.845 666 697.821V787.179C666 793.155 670.845 798 676.821 798H766.179C772.155 798 777 793.155 777 787.179V697.821C777 691.845 772.155 687 766.179 687Z" stroke="white" stroke-opacity="0.04" stroke-width="2.78762"/>
<path d="M877.179 579H787.821C781.845 579 777 583.845 777 589.821V679.179C777 685.155 781.845 690 787.821 690H877.179C883.155 690 888 685.155 888 679.179V589.821C888 583.845 883.155 579 877.179 579Z" stroke="white" stroke-opacity="0.04" stroke-width="2.78762"/>
<path d="M1322.28 578H1233.72C1227.8 578 1223 582.888 1223 588.918V679.082C1223 685.112 1227.8 690 1233.72 690H1322.28C1328.2 690 1333 685.112 1333 679.082V588.918C1333 582.888 1328.2 578 1322.28 578Z" stroke="white" stroke-opacity="0.04" stroke-width="2.78762"/>
<path d="M1322.28 799H1233.72C1227.8 799 1223 803.845 1223 809.821V899.179C1223 905.155 1227.8 910 1233.72 910H1322.28C1328.2 910 1333 905.155 1333 899.179V809.821C1333 803.845 1328.2 799 1322.28 799Z" stroke="white" stroke-opacity="0.04" stroke-width="2.78762"/>
<path d="M1322.28 1360H1233.72C1227.8 1360 1223 1364.84 1223 1370.82V1460.18C1223 1466.16 1227.8 1471 1233.72 1471H1322.28C1328.2 1471 1333 1466.16 1333 1460.18V1370.82C1333 1364.84 1328.2 1360 1322.28 1360Z" stroke="white" stroke-opacity="0.04" stroke-width="2.78762"/>
<path d="M1322.28 15H1233.72C1227.8 15 1223 19.8883 1223 25.9182V116.082C1223 122.112 1227.8 127 1233.72 127H1322.28C1328.2 127 1333 122.112 1333 116.082V25.9182C1333 19.8883 1328.2 15 1322.28 15Z" stroke="white" stroke-opacity="0.04" stroke-width="2.78762"/>
<path d="M1322.28 1805H1233.72C1227.8 1805 1223 1809.89 1223 1815.92V1906.08C1223 1912.11 1227.8 1917 1233.72 1917H1322.28C1328.2 1917 1333 1912.11 1333 1906.08V1815.92C1333 1809.89 1328.2 1805 1322.28 1805Z" stroke="white" stroke-opacity="0.04" stroke-width="2.78762"/>
<path d="M1322.28 1023H1233.72C1227.8 1023 1223 1027.84 1223 1033.82V1123.18C1223 1129.16 1227.8 1134 1233.72 1134H1322.28C1328.2 1134 1333 1129.16 1333 1123.18V1033.82C1333 1027.84 1328.2 1023 1322.28 1023Z" stroke="white" stroke-opacity="0.04" stroke-width="2.78762"/>
<path d="M1322.28 1584H1233.72C1227.8 1584 1223 1588.84 1223 1594.82V1684.18C1223 1690.16 1227.8 1695 1233.72 1695H1322.28C1328.2 1695 1333 1690.16 1333 1684.18V1594.82C1333 1588.84 1328.2 1584 1322.28 1584Z" stroke="white" stroke-opacity="0.04" stroke-width="2.78762"/>
<path d="M1322.18 239H1232.82C1226.84 239 1222 243.845 1222 249.821V339.179C1222 345.155 1226.84 350 1232.82 350H1322.18C1328.16 350 1333 345.155 1333 339.179V249.821C1333 243.845 1328.16 239 1322.18 239Z" stroke="white" stroke-opacity="0.04" stroke-width="2.78762"/>
<path d="M1322.28 1246H1233.72C1227.8 1246 1223 1250.84 1223 1256.82V1346.18C1223 1352.16 1227.8 1357 1233.72 1357H1322.28C1328.2 1357 1333 1352.16 1333 1346.18V1256.82C1333 1250.84 1328.2 1246 1322.28 1246Z" stroke="white" stroke-opacity="0.04" stroke-width="2.78762"/>
<path d="M1322.28 579H1233.72C1227.8 579 1223 583.845 1223 589.821V679.179C1223 685.155 1227.8 690 1233.72 690H1322.28C1328.2 690 1333 685.155 1333 679.179V589.821C1333 583.845 1328.2 579 1322.28 579Z" stroke="white" stroke-opacity="0.04" stroke-width="2.78762"/>
<path d="M92.2767 687H3.72327C-2.19903 687 -7 691.801 -7 697.723V786.277C-7 792.199 -2.19903 797 3.72327 797H92.2767C98.199 797 103 792.199 103 786.277V697.723C103 691.801 98.199 687 92.2767 687Z" stroke="white" stroke-opacity="0.04" stroke-width="2.78762"/>
<path d="M92.9 910H4.1C-2.03036 910 -7 915.014 -7 921.2V1010.8C-7 1016.99 -2.03036 1022 4.1 1022H92.9C99.0304 1022 104 1016.99 104 1010.8V921.2C104 915.014 99.0304 910 92.9 910Z" fill="url(#paint2_linear_164_10055)" fill-opacity="0.05"/>
<path d="M92.9 1471H4.1C-2.03036 1471 -7 1476.01 -7 1482.2V1571.8C-7 1577.99 -2.03036 1583 4.1 1583H92.9C99.0304 1583 104 1577.99 104 1571.8V1482.2C104 1476.01 99.0304 1471 92.9 1471Z" fill="url(#paint3_linear_164_10055)" fill-opacity="0.05"/>
<path d="M92.9 127H4.1C-2.03036 127 -7 132.014 -7 138.2V227.8C-7 233.986 -2.03036 239 4.1 239H92.9C99.0304 239 104 233.986 104 227.8V138.2C104 132.014 99.0304 127 92.9 127Z" fill="url(#paint4_linear_164_10055)" fill-opacity="0.05"/>
<path d="M92.9 1916H4.1C-2.03036 1916 -7 1921.01 -7 1927.2V2016.8C-7 2022.99 -2.03036 2028 4.1 2028H92.9C99.0304 2028 104 2022.99 104 2016.8V1927.2C104 1921.01 99.0304 1916 92.9 1916Z" fill="url(#paint5_linear_164_10055)" fill-opacity="0.05"/>
<path d="M92.9 1133H4.1C-2.03036 1133 -7 1138.01 -7 1144.2V1233.8C-7 1239.99 -2.03036 1245 4.1 1245H92.9C99.0304 1245 104 1239.99 104 1233.8V1144.2C104 1138.01 99.0304 1133 92.9 1133Z" fill="url(#paint6_linear_164_10055)" fill-opacity="0.05"/>
<path d="M92.9 1693H4.1C-2.03036 1693 -7 1698.01 -7 1704.2V1793.8C-7 1799.99 -2.03036 1805 4.1 1805H92.9C99.0304 1805 104 1799.99 104 1793.8V1704.2C104 1698.01 99.0304 1693 92.9 1693Z" fill="url(#paint7_linear_164_10055)" fill-opacity="0.05"/>
<path d="M543.179 911H453.821C447.845 911 443 915.845 443 921.821V1011.18C443 1017.16 447.845 1022 453.821 1022H543.179C549.155 1022 554 1017.16 554 1011.18V921.821C554 915.845 549.155 911 543.179 911Z" stroke="white" stroke-opacity="0.04" stroke-width="2.78762"/>
<path d="M543.179 1472H453.821C447.845 1472 443 1476.84 443 1482.82V1572.18C443 1578.16 447.845 1583 453.821 1583H543.179C549.155 1583 554 1578.16 554 1572.18V1482.82C554 1476.84 549.155 1472 543.179 1472Z" stroke="white" stroke-opacity="0.04" stroke-width="2.78762"/>
<path d="M543.179 799H453.821C447.845 799 443 803.845 443 809.821V899.179C443 905.155 447.845 910 453.821 910H543.179C549.155 910 554 905.155 554 899.179V809.821C554 803.845 549.155 799 543.179 799Z" stroke="white" stroke-opacity="0.04" stroke-width="2.78762"/>
<path d="M543.179 1360H453.821C447.845 1360 443 1364.84 443 1370.82V1460.18C443 1466.16 447.845 1471 453.821 1471H543.179C549.155 1471 554 1466.16 554 1460.18V1370.82C554 1364.84 549.155 1360 543.179 1360Z" stroke="white" stroke-opacity="0.04" stroke-width="2.78762"/>
<path d="M544.082 1916H453.918C447.888 1916 443 1920.89 443 1926.92V2017.08C443 2023.11 447.888 2028 453.918 2028H544.082C550.112 2028 555 2023.11 555 2017.08V1926.92C555 1920.89 550.112 1916 544.082 1916Z" stroke="white" stroke-opacity="0.04" stroke-width="2.78762"/>
<path d="M543.179 1134H453.821C447.845 1134 443 1138.8 443 1144.72V1233.28C443 1239.2 447.845 1244 453.821 1244H543.179C549.155 1244 554 1239.2 554 1233.28V1144.72C554 1138.8 549.155 1134 543.179 1134Z" stroke="white" stroke-opacity="0.04" stroke-width="2.78762"/>
<path d="M543.179 1694H453.821C447.845 1694 443 1698.8 443 1704.72V1793.28C443 1799.2 447.845 1804 453.821 1804H543.179C549.155 1804 554 1799.2 554 1793.28V1704.72C554 1698.8 549.155 1694 543.179 1694Z" stroke="white" stroke-opacity="0.04" stroke-width="2.78762"/>
<path d="M543.179 464H453.821C447.845 464 443 468.801 443 474.723V563.277C443 569.199 447.845 574 453.821 574H543.179C549.155 574 554 569.199 554 563.277V474.723C554 468.801 549.155 464 543.179 464Z" stroke="white" stroke-opacity="0.04" stroke-width="2.78762"/>
<path d="M543.179 356H453.821C447.845 356 443 360.801 443 366.723V455.277C443 461.199 447.845 466 453.821 466H543.179C549.155 466 554 461.199 554 455.277V366.723C554 360.801 549.155 356 543.179 356Z" stroke="white" stroke-opacity="0.04" stroke-width="2.78762"/>
<path d="M543.179 240H453.821C447.845 240 443 244.801 443 250.723V339.277C443 345.199 447.845 350 453.821 350H543.179C549.155 350 554 345.199 554 339.277V250.723C554 244.801 549.155 240 543.179 240Z" stroke="white" stroke-opacity="0.04" stroke-width="2.78762"/>
<path d="M432.179 128H342.821C336.845 128 332 132.801 332 138.723V227.277C332 233.199 336.845 238 342.821 238H432.179C438.155 238 443 233.199 443 227.277V138.723C443 132.801 438.155 128 432.179 128Z" stroke="white" stroke-opacity="0.04" stroke-width="2.78762"/>
<path d="M988.082 911H897.918C891.888 911 887 915.845 887 921.821V1011.18C887 1017.16 891.888 1022 897.918 1022H988.082C994.112 1022 999 1017.16 999 1011.18V921.821C999 915.845 994.112 911 988.082 911Z" stroke="white" stroke-opacity="0.04" stroke-width="2.78762"/>
<path d="M988.082 1472H897.918C891.888 1472 887 1476.84 887 1482.82V1572.18C887 1578.16 891.888 1583 897.918 1583H988.082C994.112 1583 999 1578.16 999 1572.18V1482.82C999 1476.84 994.112 1472 988.082 1472Z" stroke="white" stroke-opacity="0.04" stroke-width="2.78762"/>
<path d="M988.082 799H897.918C891.888 799 887 803.845 887 809.821V899.179C887 905.155 891.888 910 897.918 910H988.082C994.112 910 999 905.155 999 899.179V809.821C999 803.845 994.112 799 988.082 799Z" stroke="white" stroke-opacity="0.04" stroke-width="2.78762"/>
<path d="M988.082 1360H897.918C891.888 1360 887 1364.84 887 1370.82V1460.18C887 1466.16 891.888 1471 897.918 1471H988.082C994.112 1471 999 1466.16 999 1460.18V1370.82C999 1364.84 994.112 1360 988.082 1360Z" stroke="white" stroke-opacity="0.04" stroke-width="2.78762"/>
<path d="M988.082 687H897.918C891.888 687 887 691.845 887 697.821V787.179C887 793.155 891.888 798 897.918 798H988.082C994.112 798 999 793.155 999 787.179V697.821C999 691.845 994.112 687 988.082 687Z" stroke="white" stroke-opacity="0.04" stroke-width="2.78762"/>
<path d="M988.082 1916H897.918C891.888 1916 887 1920.89 887 1926.92V2017.08C887 2023.11 891.888 2028 897.918 2028H988.082C994.112 2028 999 2023.11 999 2017.08V1926.92C999 1920.89 994.112 1916 988.082 1916Z" stroke="white" stroke-opacity="0.04" stroke-width="2.78762"/>
<path d="M988.179 1134H898.821C892.845 1134 888 1138.8 888 1144.72V1233.28C888 1239.2 892.845 1244 898.821 1244H988.179C994.155 1244 999 1239.2 999 1233.28V1144.72C999 1138.8 994.155 1134 988.179 1134Z" stroke="white" stroke-opacity="0.04" stroke-width="2.78762"/>
<path d="M988.179 1694H898.821C892.845 1694 888 1698.8 888 1704.72V1793.28C888 1799.2 892.845 1804 898.821 1804H988.179C994.155 1804 999 1799.2 999 1793.28V1704.72C999 1698.8 994.155 1694 988.179 1694Z" stroke="white" stroke-opacity="0.04" stroke-width="2.78762"/>
<path d="M988.179 464H898.821C892.845 464 888 468.801 888 474.723V563.277C888 569.199 892.845 574 898.821 574H988.179C994.155 574 999 569.199 999 563.277V474.723C999 468.801 994.155 464 988.179 464Z" stroke="white" stroke-opacity="0.04" stroke-width="2.78762"/>
<path d="M988.179 356H898.821C892.845 356 888 360.801 888 366.723V455.277C888 461.199 892.845 466 898.821 466H988.179C994.155 466 999 461.199 999 455.277V366.723C999 360.801 994.155 356 988.179 356Z" stroke="white" stroke-opacity="0.04" stroke-width="2.78762"/>
<path d="M988.179 240H898.821C892.845 240 888 244.801 888 250.723V339.277C888 345.199 892.845 350 898.821 350H988.179C994.155 350 999 345.199 999 339.277V250.723C999 244.801 994.155 240 988.179 240Z" stroke="white" stroke-opacity="0.04" stroke-width="2.78762"/>
<path d="M1099.18 128H1009.82C1003.84 128 999 132.801 999 138.723V227.277C999 233.199 1003.84 238 1009.82 238H1099.18C1105.16 238 1110 233.199 1110 227.277V138.723C1110 132.801 1105.16 128 1099.18 128Z" stroke="white" stroke-opacity="0.04" stroke-width="2.78762"/>
<path d="M321.082 464H230.918C224.888 464 220 468.845 220 474.821V564.179C220 570.155 224.888 575 230.918 575H321.082C327.112 575 332 570.155 332 564.179V474.821C332 468.845 327.112 464 321.082 464Z" stroke="url(#paint8_linear_164_10055)" stroke-opacity="0.04" stroke-width="2.78762"/>
<path d="M321.082 355H230.918C224.888 355 220 359.845 220 365.821V455.179C220 461.155 224.888 466 230.918 466H321.082C327.112 466 332 461.155 332 455.179V365.821C332 359.845 327.112 355 321.082 355Z" stroke="url(#paint9_linear_164_10055)" stroke-opacity="0.04" stroke-width="2.78762"/>
<path d="M209.179 464H119.821C113.845 464 109 468.845 109 474.821V564.179C109 570.155 113.845 575 119.821 575H209.179C215.155 575 220 570.155 220 564.179V474.821C220 468.845 215.155 464 209.179 464Z" stroke="white" stroke-opacity="0.04" stroke-width="2.78762"/>
<path d="M209.179 355H119.821C113.845 355 109 359.845 109 365.821V455.179C109 461.155 113.845 466 119.821 466H209.179C215.155 466 220 461.155 220 455.179V365.821C220 359.845 215.155 355 209.179 355Z" stroke="white" stroke-opacity="0.04" stroke-width="2.78762"/>
<path d="M321.082 911H230.918C224.888 911 220 915.845 220 921.821V1011.18C220 1017.16 224.888 1022 230.918 1022H321.082C327.112 1022 332 1017.16 332 1011.18V921.821C332 915.845 327.112 911 321.082 911Z" stroke="white" stroke-opacity="0.04" stroke-width="2.78762"/>
<path d="M321.082 1472H230.918C224.888 1472 220 1476.84 220 1482.82V1572.18C220 1578.16 224.888 1583 230.918 1583H321.082C327.112 1583 332 1578.16 332 1572.18V1482.82C332 1476.84 327.112 1472 321.082 1472Z" stroke="white" stroke-opacity="0.04" stroke-width="2.78762"/>
<path d="M321.179 127H231.821C225.845 127 221 131.888 221 137.918V228.082C221 234.112 225.845 239 231.821 239H321.179C327.155 239 332 234.112 332 228.082V137.918C332 131.888 327.155 127 321.179 127Z" stroke="white" stroke-opacity="0.04" stroke-width="2.78762"/>
<path d="M321.179 1916H231.821C225.845 1916 221 1920.89 221 1926.92V2017.08C221 2023.11 225.845 2028 231.821 2028H321.179C327.155 2028 332 2023.11 332 2017.08V1926.92C332 1920.89 327.155 1916 321.179 1916Z" stroke="white" stroke-opacity="0.04" stroke-width="2.78762"/>
<path d="M321.082 1134H230.918C224.888 1134 220 1138.8 220 1144.72V1233.28C220 1239.2 224.888 1244 230.918 1244H321.082C327.112 1244 332 1239.2 332 1233.28V1144.72C332 1138.8 327.112 1134 321.082 1134Z" stroke="white" stroke-opacity="0.04" stroke-width="2.78762"/>
<path d="M321.082 1694H230.918C224.888 1694 220 1698.8 220 1704.72V1793.28C220 1799.2 224.888 1804 230.918 1804H321.082C327.112 1804 332 1799.2 332 1793.28V1704.72C332 1698.8 327.112 1694 321.082 1694Z" stroke="white" stroke-opacity="0.04" stroke-width="2.78762"/>
<path d="M321.082 464H230.918C224.888 464 220 468.801 220 474.723V563.277C220 569.199 224.888 574 230.918 574H321.082C327.112 574 332 569.199 332 563.277V474.723C332 468.801 327.112 464 321.082 464Z" stroke="white" stroke-opacity="0.04" stroke-width="2.78762"/>
<path d="M321.082 356H230.918C224.888 356 220 360.801 220 366.723V455.277C220 461.199 224.888 466 230.918 466H321.082C327.112 466 332 461.199 332 455.277V366.723C332 360.801 327.112 356 321.082 356Z" stroke="white" stroke-opacity="0.04" stroke-width="2.78762"/>
<path d="M766.179 911H676.821C670.845 911 666 915.845 666 921.821V1011.18C666 1017.16 670.845 1022 676.821 1022H766.179C772.155 1022 777 1017.16 777 1011.18V921.821C777 915.845 772.155 911 766.179 911Z" stroke="white" stroke-opacity="0.04" stroke-width="2.78762"/>
<path d="M766.179 1472H676.821C670.845 1472 666 1476.84 666 1482.82V1572.18C666 1578.16 670.845 1583 676.821 1583H766.179C772.155 1583 777 1578.16 777 1572.18V1482.82C777 1476.84 772.155 1472 766.179 1472Z" stroke="white" stroke-opacity="0.04" stroke-width="2.78762"/>
<path d="M766.179 799H676.821C670.845 799 666 803.845 666 809.821V899.179C666 905.155 670.845 910 676.821 910H766.179C772.155 910 777 905.155 777 899.179V809.821C777 803.845 772.155 799 766.179 799Z" stroke="white" stroke-opacity="0.04" stroke-width="2.78762"/>
<path d="M766.179 1360H676.821C670.845 1360 666 1364.84 666 1370.82V1460.18C666 1466.16 670.845 1471 676.821 1471H766.179C772.155 1471 777 1466.16 777 1460.18V1370.82C777 1364.84 772.155 1360 766.179 1360Z" stroke="white" stroke-opacity="0.04" stroke-width="2.78762"/>
<path d="M766.179 1916H676.821C670.845 1916 666 1920.89 666 1926.92V2017.08C666 2023.11 670.845 2028 676.821 2028H766.179C772.155 2028 777 2023.11 777 2017.08V1926.92C777 1920.89 772.155 1916 766.179 1916Z" stroke="white" stroke-opacity="0.04" stroke-width="2.78762"/>
<path d="M766.179 1134H676.821C670.845 1134 666 1138.8 666 1144.72V1233.28C666 1239.2 670.845 1244 676.821 1244H766.179C772.155 1244 777 1239.2 777 1233.28V1144.72C777 1138.8 772.155 1134 766.179 1134Z" stroke="white" stroke-opacity="0.04" stroke-width="2.78762"/>
<path d="M766.179 1694H676.821C670.845 1694 666 1698.8 666 1704.72V1793.28C666 1799.2 670.845 1804 676.821 1804H766.179C772.155 1804 777 1799.2 777 1793.28V1704.72C777 1698.8 772.155 1694 766.179 1694Z" stroke="white" stroke-opacity="0.04" stroke-width="2.78762"/>
<path d="M766.179 464H676.821C670.845 464 666 468.801 666 474.723V563.277C666 569.199 670.845 574 676.821 574H766.179C772.155 574 777 569.199 777 563.277V474.723C777 468.801 772.155 464 766.179 464Z" stroke="white" stroke-opacity="0.04" stroke-width="2.78762"/>
<path d="M766.179 356H676.821C670.845 356 666 360.801 666 366.723V455.277C666 461.199 670.845 466 676.821 466H766.179C772.155 466 777 461.199 777 455.277V366.723C777 360.801 772.155 356 766.179 356Z" stroke="white" stroke-opacity="0.04" stroke-width="2.78762"/>
<path d="M1207.18 464H1117.82C1111.84 464 1107 468.845 1107 474.821V564.179C1107 570.155 1111.84 575 1117.82 575H1207.18C1213.16 575 1218 570.155 1218 564.179V474.821C1218 468.845 1213.16 464 1207.18 464Z" stroke="url(#paint10_linear_164_10055)" stroke-opacity="0.04" stroke-width="2.78762"/>
<path d="M1207.18 355H1117.82C1111.84 355 1107 359.845 1107 365.821V455.179C1107 461.155 1111.84 466 1117.82 466H1207.18C1213.16 466 1218 461.155 1218 455.179V365.821C1218 359.845 1213.16 355 1207.18 355Z" stroke="url(#paint11_linear_164_10055)" stroke-opacity="0.04" stroke-width="2.78762"/>
<path d="M1207.18 687H1117.82C1111.84 687 1107 691.801 1107 697.723V786.277C1107 792.199 1111.84 797 1117.82 797H1207.18C1213.16 797 1218 792.199 1218 786.277V697.723C1218 691.801 1213.16 687 1207.18 687Z" stroke="white" stroke-opacity="0.04" stroke-width="2.78762"/>
<path d="M1207.18 911H1117.82C1111.84 911 1107 915.845 1107 921.821V1011.18C1107 1017.16 1111.84 1022 1117.82 1022H1207.18C1213.16 1022 1218 1017.16 1218 1011.18V921.821C1218 915.845 1213.16 911 1207.18 911Z" stroke="white" stroke-opacity="0.04" stroke-width="2.78762"/>
<path d="M1207.18 1472H1117.82C1111.84 1472 1107 1476.84 1107 1482.82V1572.18C1107 1578.16 1111.84 1583 1117.82 1583H1207.18C1213.16 1583 1218 1578.16 1218 1572.18V1482.82C1218 1476.84 1213.16 1472 1207.18 1472Z" stroke="white" stroke-opacity="0.04" stroke-width="2.78762"/>
<path d="M1208.08 127H1117.92C1111.89 127 1107 131.888 1107 137.918V228.082C1107 234.112 1111.89 239 1117.92 239H1208.08C1214.11 239 1219 234.112 1219 228.082V137.918C1219 131.888 1214.11 127 1208.08 127Z" stroke="white" stroke-opacity="0.04" stroke-width="2.78762"/>
<path d="M1208.08 1916H1117.92C1111.89 1916 1107 1920.89 1107 1926.92V2017.08C1107 2023.11 1111.89 2028 1117.92 2028H1208.08C1214.11 2028 1219 2023.11 1219 2017.08V1926.92C1219 1920.89 1214.11 1916 1208.08 1916Z" stroke="white" stroke-opacity="0.04" stroke-width="2.78762"/>
<path d="M1208.08 1134H1117.92C1111.89 1134 1107 1138.8 1107 1144.72V1233.28C1107 1239.2 1111.89 1244 1117.92 1244H1208.08C1214.11 1244 1219 1239.2 1219 1233.28V1144.72C1219 1138.8 1214.11 1134 1208.08 1134Z" stroke="white" stroke-opacity="0.04" stroke-width="2.78762"/>
<path d="M1208.08 1694H1117.92C1111.89 1694 1107 1698.8 1107 1704.72V1793.28C1107 1799.2 1111.89 1804 1117.92 1804H1208.08C1214.11 1804 1219 1799.2 1219 1793.28V1704.72C1219 1698.8 1214.11 1694 1208.08 1694Z" stroke="white" stroke-opacity="0.04" stroke-width="2.78762"/>
<path d="M1208.08 464H1117.92C1111.89 464 1107 468.801 1107 474.723V563.277C1107 569.199 1111.89 574 1117.92 574H1208.08C1214.11 574 1219 569.199 1219 563.277V474.723C1219 468.801 1214.11 464 1208.08 464Z" stroke="white" stroke-opacity="0.04" stroke-width="2.78762"/>
<path d="M1208.08 356H1117.92C1111.89 356 1107 360.801 1107 366.723V455.277C1107 461.199 1111.89 466 1117.92 466H1208.08C1214.11 466 1219 461.199 1219 455.277V366.723C1219 360.801 1214.11 356 1208.08 356Z" stroke="white" stroke-opacity="0.04" stroke-width="2.78762"/>
<path d="M92.2767 578H3.72327C-2.19903 578 -7 582.888 -7 588.918V679.082C-7 685.112 -2.19903 690 3.72327 690H92.2767C98.199 690 103 685.112 103 679.082V588.918C103 582.888 98.199 578 92.2767 578Z" stroke="white" stroke-opacity="0.04" stroke-width="2.78762"/>
<path d="M92.2767 463H3.72327C-2.19903 463 -7 467.888 -7 473.918V564.082C-7 570.112 -2.19903 575 3.72327 575H92.2767C98.199 575 103 570.112 103 564.082V473.918C103 467.888 98.199 463 92.2767 463Z" stroke="white" stroke-opacity="0.04" stroke-width="2.78762"/>
<path d="M92.2767 355H3.72327C-2.19903 355 -7 359.888 -7 365.918V456.082C-7 462.112 -2.19903 467 3.72327 467H92.2767C98.199 467 103 462.112 103 456.082V365.918C103 359.888 98.199 355 92.2767 355Z" stroke="white" stroke-opacity="0.04" stroke-width="2.78762"/>
<path d="M92.2767 799H3.72327C-2.19903 799 -7 803.845 -7 809.821V899.179C-7 905.155 -2.19903 910 3.72327 910H92.2767C98.199 910 103 905.155 103 899.179V809.821C103 803.845 98.199 799 92.2767 799Z" stroke="white" stroke-opacity="0.04" stroke-width="2.78762"/>
<path d="M92.2767 1360H3.72327C-2.19903 1360 -7 1364.84 -7 1370.82V1460.18C-7 1466.16 -2.19903 1471 3.72327 1471H92.2767C98.199 1471 103 1466.16 103 1460.18V1370.82C103 1364.84 98.199 1360 92.2767 1360Z" stroke="white" stroke-opacity="0.04" stroke-width="2.78762"/>
<path d="M93.1792 15H3.82076C-2.15538 15 -7 19.8883 -7 25.9182V116.082C-7 122.112 -2.15538 127 3.82076 127H93.1792C99.1554 127 104 122.112 104 116.082V25.9182C104 19.8883 99.1554 15 93.1792 15Z" stroke="white" stroke-opacity="0.04" stroke-width="2.78762"/>
<path d="M93.1792 1805H3.82076C-2.15538 1805 -7 1809.89 -7 1815.92V1906.08C-7 1912.11 -2.15538 1917 3.82076 1917H93.1792C99.1554 1917 104 1912.11 104 1906.08V1815.92C104 1809.89 99.1554 1805 93.1792 1805Z" stroke="white" stroke-opacity="0.04" stroke-width="2.78762"/>
<path d="M92.2767 1023H3.72327C-2.19903 1023 -7 1027.84 -7 1033.82V1123.18C-7 1129.16 -2.19903 1134 3.72327 1134H92.2767C98.199 1134 103 1129.16 103 1123.18V1033.82C103 1027.84 98.199 1023 92.2767 1023Z" stroke="white" stroke-opacity="0.04" stroke-width="2.78762"/>
<path d="M92.2767 1584H3.72327C-2.19903 1584 -7 1588.84 -7 1594.82V1684.18C-7 1690.16 -2.19903 1695 3.72327 1695H92.2767C98.199 1695 103 1690.16 103 1684.18V1594.82C103 1588.84 98.199 1584 92.2767 1584Z" stroke="white" stroke-opacity="0.04" stroke-width="2.78762"/>
<path d="M93.1792 239H3.82076C-2.15538 239 -7 243.845 -7 249.821V339.179C-7 345.155 -2.15538 350 3.82076 350H93.1792C99.1554 350 104 345.155 104 339.179V249.821C104 243.845 99.1554 239 93.1792 239Z" stroke="white" stroke-opacity="0.04" stroke-width="2.78762"/>
<path d="M92.2767 1246H3.72327C-2.19903 1246 -7 1250.84 -7 1256.82V1346.18C-7 1352.16 -2.19903 1357 3.72327 1357H92.2767C98.199 1357 103 1352.16 103 1346.18V1256.82C103 1250.84 98.199 1246 92.2767 1246Z" stroke="white" stroke-opacity="0.04" stroke-width="2.78762"/>
<path d="M544.082 1805H453.918C447.888 1805 443 1809.89 443 1815.92V1906.08C443 1912.11 447.888 1917 453.918 1917H544.082C550.112 1917 555 1912.11 555 1906.08V1815.92C555 1809.89 550.112 1805 544.082 1805Z" stroke="white" stroke-opacity="0.04" stroke-width="2.78762"/>
<path d="M543.179 1023H453.821C447.845 1023 443 1027.84 443 1033.82V1123.18C443 1129.16 447.845 1134 453.821 1134H543.179C549.155 1134 554 1129.16 554 1123.18V1033.82C554 1027.84 549.155 1023 543.179 1023Z" stroke="white" stroke-opacity="0.04" stroke-width="2.78762"/>
<path d="M543.179 1584H453.821C447.845 1584 443 1588.84 443 1594.82V1684.18C443 1690.16 447.845 1695 453.821 1695H543.179C549.155 1695 554 1690.16 554 1684.18V1594.82C554 1588.84 549.155 1584 543.179 1584Z" stroke="white" stroke-opacity="0.04" stroke-width="2.78762"/>
<path d="M543.179 1246H453.821C447.845 1246 443 1250.84 443 1256.82V1346.18C443 1352.16 447.845 1357 453.821 1357H543.179C549.155 1357 554 1352.16 554 1346.18V1256.82C554 1250.84 549.155 1246 543.179 1246Z" stroke="white" stroke-opacity="0.04" stroke-width="2.78762"/>
<path d="M543.179 579H453.821C447.845 579 443 583.845 443 589.821V679.179C443 685.155 447.845 690 453.821 690H543.179C549.155 690 554 685.155 554 679.179V589.821C554 583.845 549.155 579 543.179 579Z" stroke="white" stroke-opacity="0.04" stroke-width="2.78762"/>
<path d="M988.179 1805H898.821C892.845 1805 888 1809.89 888 1815.92V1906.08C888 1912.11 892.845 1917 898.821 1917H988.179C994.155 1917 999 1912.11 999 1906.08V1815.92C999 1809.89 994.155 1805 988.179 1805Z" stroke="white" stroke-opacity="0.04" stroke-width="2.78762"/>
<path d="M988.082 1023H897.918C891.888 1023 887 1027.84 887 1033.82V1123.18C887 1129.16 891.888 1134 897.918 1134H988.082C994.112 1134 999 1129.16 999 1123.18V1033.82C999 1027.84 994.112 1023 988.082 1023Z" stroke="white" stroke-opacity="0.04" stroke-width="2.78762"/>
<path d="M988.082 1584H897.918C891.888 1584 887 1588.84 887 1594.82V1684.18C887 1690.16 891.888 1695 897.918 1695H988.082C994.112 1695 999 1690.16 999 1684.18V1594.82C999 1588.84 994.112 1584 988.082 1584Z" stroke="white" stroke-opacity="0.04" stroke-width="2.78762"/>
<path d="M988.179 1246H898.821C892.845 1246 888 1250.84 888 1256.82V1346.18C888 1352.16 892.845 1357 898.821 1357H988.179C994.155 1357 999 1352.16 999 1346.18V1256.82C999 1250.84 994.155 1246 988.179 1246Z" stroke="white" stroke-opacity="0.04" stroke-width="2.78762"/>
<path d="M877.179 687H787.821C781.845 687 777 691.845 777 697.821V787.179C777 793.155 781.845 798 787.821 798H877.179C883.155 798 888 793.155 888 787.179V697.821C888 691.845 883.155 687 877.179 687Z" stroke="white" stroke-opacity="0.04" stroke-width="2.78762"/>
<path d="M988.179 579H898.821C892.845 579 888 583.845 888 589.821V679.179C888 685.155 892.845 690 898.821 690H988.179C994.155 690 999 685.155 999 679.179V589.821C999 583.845 994.155 579 988.179 579Z" stroke="white" stroke-opacity="0.04" stroke-width="2.78762"/>
<path d="M321.082 578H230.918C224.888 578 220 582.888 220 588.918V679.082C220 685.112 224.888 690 230.918 690H321.082C327.112 690 332 685.112 332 679.082V588.918C332 582.888 327.112 578 321.082 578Z" stroke="white" stroke-opacity="0.04" stroke-width="2.78762"/>
<path d="M321.082 799H230.918C224.888 799 220 803.845 220 809.821V899.179C220 905.155 224.888 910 230.918 910H321.082C327.112 910 332 905.155 332 899.179V809.821C332 803.845 327.112 799 321.082 799Z" stroke="white" stroke-opacity="0.04" stroke-width="2.78762"/>
<path d="M321.082 1360H230.918C224.888 1360 220 1364.84 220 1370.82V1460.18C220 1466.16 224.888 1471 230.918 1471H321.082C327.112 1471 332 1466.16 332 1460.18V1370.82C332 1364.84 327.112 1360 321.082 1360Z" stroke="white" stroke-opacity="0.04" stroke-width="2.78762"/>
<path d="M321.179 15H231.821C225.845 15 221 19.8883 221 25.9182V116.082C221 122.112 225.845 127 231.821 127H321.179C327.155 127 332 122.112 332 116.082V25.9182C332 19.8883 327.155 15 321.179 15Z" stroke="white" stroke-opacity="0.04" stroke-width="2.78762"/>
<path d="M321.179 1805H231.821C225.845 1805 221 1809.89 221 1815.92V1906.08C221 1912.11 225.845 1917 231.821 1917H321.179C327.155 1917 332 1912.11 332 1906.08V1815.92C332 1809.89 327.155 1805 321.179 1805Z" stroke="white" stroke-opacity="0.04" stroke-width="2.78762"/>
<path d="M321.082 1023H230.918C224.888 1023 220 1027.84 220 1033.82V1123.18C220 1129.16 224.888 1134 230.918 1134H321.082C327.112 1134 332 1129.16 332 1123.18V1033.82C332 1027.84 327.112 1023 321.082 1023Z" stroke="white" stroke-opacity="0.04" stroke-width="2.78762"/>
<path d="M321.082 1584H230.918C224.888 1584 220 1588.84 220 1594.82V1684.18C220 1690.16 224.888 1695 230.918 1695H321.082C327.112 1695 332 1690.16 332 1684.18V1594.82C332 1588.84 327.112 1584 321.082 1584Z" stroke="white" stroke-opacity="0.04" stroke-width="2.78762"/>
<path d="M321.179 239H231.821C225.845 239 221 243.845 221 249.821V339.179C221 345.155 225.845 350 231.821 350H321.179C327.155 350 332 345.155 332 339.179V249.821C332 243.845 327.155 239 321.179 239Z" stroke="white" stroke-opacity="0.04" stroke-width="2.78762"/>
<path d="M321.082 1246H230.918C224.888 1246 220 1250.84 220 1256.82V1346.18C220 1352.16 224.888 1357 230.918 1357H321.082C327.112 1357 332 1352.16 332 1346.18V1256.82C332 1250.84 327.112 1246 321.082 1246Z" stroke="white" stroke-opacity="0.04" stroke-width="2.78762"/>
<path d="M321.082 579H230.918C224.888 579 220 583.845 220 589.821V679.179C220 685.155 224.888 690 230.918 690H321.082C327.112 690 332 685.155 332 679.179V589.821C332 583.845 327.112 579 321.082 579Z" stroke="white" stroke-opacity="0.04" stroke-width="2.78762"/>
<path d="M321.082 687H230.918C224.888 687 220 691.845 220 697.821V787.179C220 793.155 224.888 798 230.918 798H321.082C327.112 798 332 793.155 332 787.179V697.821C332 691.845 327.112 687 321.082 687Z" stroke="white" stroke-opacity="0.04" stroke-width="2.78762"/>
<path d="M766.179 1805H676.821C670.845 1805 666 1809.89 666 1815.92V1906.08C666 1912.11 670.845 1917 676.821 1917H766.179C772.155 1917 777 1912.11 777 1906.08V1815.92C777 1809.89 772.155 1805 766.179 1805Z" stroke="white" stroke-opacity="0.04" stroke-width="2.78762"/>
<path d="M766.179 1023H676.821C670.845 1023 666 1027.84 666 1033.82V1123.18C666 1129.16 670.845 1134 676.821 1134H766.179C772.155 1134 777 1129.16 777 1123.18V1033.82C777 1027.84 772.155 1023 766.179 1023Z" stroke="white" stroke-opacity="0.04" stroke-width="2.78762"/>
<path d="M766.179 1584H676.821C670.845 1584 666 1588.84 666 1594.82V1684.18C666 1690.16 670.845 1695 676.821 1695H766.179C772.155 1695 777 1690.16 777 1684.18V1594.82C777 1588.84 772.155 1584 766.179 1584Z" stroke="white" stroke-opacity="0.04" stroke-width="2.78762"/>
<path d="M766.179 1246H676.821C670.845 1246 666 1250.84 666 1256.82V1346.18C666 1352.16 670.845 1357 676.821 1357H766.179C772.155 1357 777 1352.16 777 1346.18V1256.82C777 1250.84 772.155 1246 766.179 1246Z" stroke="white" stroke-opacity="0.04" stroke-width="2.78762"/>
<path d="M655.179 687H565.821C559.845 687 555 691.845 555 697.821V787.179C555 793.155 559.845 798 565.821 798H655.179C661.155 798 666 793.155 666 787.179V697.821C666 691.845 661.155 687 655.179 687Z" stroke="white" stroke-opacity="0.04" stroke-width="2.78762"/>
<path d="M766.179 579H676.821C670.845 579 666 583.845 666 589.821V679.179C666 685.155 670.845 690 676.821 690H766.179C772.155 690 777 685.155 777 679.179V589.821C777 583.845 772.155 579 766.179 579Z" stroke="white" stroke-opacity="0.04" stroke-width="2.78762"/>
<path d="M1207.7 578H1117.3C1111.06 578 1106 583.014 1106 589.2V678.8C1106 684.986 1111.06 690 1117.3 690H1207.7C1213.94 690 1219 684.986 1219 678.8V589.2C1219 583.014 1213.94 578 1207.7 578Z" fill="url(#paint12_linear_164_10055)" fill-opacity="0.05"/>
<path d="M94.7 355H4.3C-1.94082 355 -7 360.014 -7 366.2V455.8C-7 461.986 -1.94082 467 4.3 467H94.7C100.941 467 106 461.986 106 455.8V366.2C106 360.014 100.941 355 94.7 355Z" fill="url(#paint13_linear_164_10055)" fill-opacity="0.05"/>
<path d="M1207.18 799H1117.82C1111.84 799 1107 803.845 1107 809.821V899.179C1107 905.155 1111.84 910 1117.82 910H1207.18C1213.16 910 1218 905.155 1218 899.179V809.821C1218 803.845 1213.16 799 1207.18 799Z" stroke="white" stroke-opacity="0.04" stroke-width="2.78762"/>
<path d="M1207.18 1360H1117.82C1111.84 1360 1107 1364.84 1107 1370.82V1460.18C1107 1466.16 1111.84 1471 1117.82 1471H1207.18C1213.16 1471 1218 1466.16 1218 1460.18V1370.82C1218 1364.84 1213.16 1360 1207.18 1360Z" stroke="white" stroke-opacity="0.04" stroke-width="2.78762"/>
<path d="M1208.08 15H1117.92C1111.89 15 1107 19.8883 1107 25.9182V116.082C1107 122.112 1111.89 127 1117.92 127H1208.08C1214.11 127 1219 122.112 1219 116.082V25.9182C1219 19.8883 1214.11 15 1208.08 15Z" stroke="white" stroke-opacity="0.04" stroke-width="2.78762"/>
<path d="M1208.08 1805H1117.92C1111.89 1805 1107 1809.89 1107 1815.92V1906.08C1107 1912.11 1111.89 1917 1117.92 1917H1208.08C1214.11 1917 1219 1912.11 1219 1906.08V1815.92C1219 1809.89 1214.11 1805 1208.08 1805Z" stroke="white" stroke-opacity="0.04" stroke-width="2.78762"/>
<path d="M1207.18 1023H1117.82C1111.84 1023 1107 1027.84 1107 1033.82V1123.18C1107 1129.16 1111.84 1134 1117.82 1134H1207.18C1213.16 1134 1218 1129.16 1218 1123.18V1033.82C1218 1027.84 1213.16 1023 1207.18 1023Z" stroke="white" stroke-opacity="0.04" stroke-width="2.78762"/>
<path d="M1207.18 1584H1117.82C1111.84 1584 1107 1588.84 1107 1594.82V1684.18C1107 1690.16 1111.84 1695 1117.82 1695H1207.18C1213.16 1695 1218 1690.16 1218 1684.18V1594.82C1218 1588.84 1213.16 1584 1207.18 1584Z" stroke="white" stroke-opacity="0.04" stroke-width="2.78762"/>
<path d="M1208.08 239H1117.92C1111.89 239 1107 243.845 1107 249.821V339.179C1107 345.155 1111.89 350 1117.92 350H1208.08C1214.11 350 1219 345.155 1219 339.179V249.821C1219 243.845 1214.11 239 1208.08 239Z" stroke="white" stroke-opacity="0.04" stroke-width="2.78762"/>
<path d="M1208.08 1246H1117.92C1111.89 1246 1107 1250.84 1107 1256.82V1346.18C1107 1352.16 1111.89 1357 1117.92 1357H1208.08C1214.11 1357 1219 1352.16 1219 1346.18V1256.82C1219 1250.84 1214.11 1246 1208.08 1246Z" stroke="white" stroke-opacity="0.04" stroke-width="2.78762"/>
<path d="M1208.08 579H1117.92C1111.89 579 1107 583.845 1107 589.821V679.179C1107 685.155 1111.89 690 1117.92 690H1208.08C1214.11 690 1219 685.155 1219 679.179V589.821C1219 583.845 1214.11 579 1208.08 579Z" stroke="white" stroke-opacity="0.04" stroke-width="2.78762"/>
<path d="M1434.08 464H1343.92C1337.89 464 1333 468.845 1333 474.821V564.179C1333 570.155 1337.89 575 1343.92 575H1434.08C1440.11 575 1445 570.155 1445 564.179V474.821C1445 468.845 1440.11 464 1434.08 464Z" stroke="white" stroke-opacity="0.04" stroke-width="2.78762"/>
<path d="M1434.08 355H1343.92C1337.89 355 1333 359.845 1333 365.821V455.179C1333 461.155 1337.89 466 1343.92 466H1434.08C1440.11 466 1445 461.155 1445 455.179V365.821C1445 359.845 1440.11 355 1434.08 355Z" stroke="white" stroke-opacity="0.04" stroke-width="2.78762"/>
<path d="M1434.08 687H1343.92C1337.89 687 1333 691.801 1333 697.723V786.277C1333 792.199 1337.89 797 1343.92 797H1434.08C1440.11 797 1445 792.199 1445 786.277V697.723C1445 691.801 1440.11 687 1434.08 687Z" stroke="white" stroke-opacity="0.04" stroke-width="2.78762"/>
<path d="M1434.08 911H1343.92C1337.89 911 1333 915.845 1333 921.821V1011.18C1333 1017.16 1337.89 1022 1343.92 1022H1434.08C1440.11 1022 1445 1017.16 1445 1011.18V921.821C1445 915.845 1440.11 911 1434.08 911Z" stroke="white" stroke-opacity="0.04" stroke-width="2.78762"/>
<path d="M1434.08 1472H1343.92C1337.89 1472 1333 1476.84 1333 1482.82V1572.18C1333 1578.16 1337.89 1583 1343.92 1583H1434.08C1440.11 1583 1445 1578.16 1445 1572.18V1482.82C1445 1476.84 1440.11 1472 1434.08 1472Z" stroke="white" stroke-opacity="0.04" stroke-width="2.78762"/>
<path d="M1433.18 127H1343.82C1337.84 127 1333 131.888 1333 137.918V228.082C1333 234.112 1337.84 239 1343.82 239H1433.18C1439.16 239 1444 234.112 1444 228.082V137.918C1444 131.888 1439.16 127 1433.18 127Z" stroke="white" stroke-opacity="0.04" stroke-width="2.78762"/>
<path d="M1433.18 1916H1343.82C1337.84 1916 1333 1920.89 1333 1926.92V2017.08C1333 2023.11 1337.84 2028 1343.82 2028H1433.18C1439.16 2028 1444 2023.11 1444 2017.08V1926.92C1444 1920.89 1439.16 1916 1433.18 1916Z" stroke="white" stroke-opacity="0.04" stroke-width="2.78762"/>
<path d="M1433.18 1134H1343.82C1337.84 1134 1333 1138.8 1333 1144.72V1233.28C1333 1239.2 1337.84 1244 1343.82 1244H1433.18C1439.16 1244 1444 1239.2 1444 1233.28V1144.72C1444 1138.8 1439.16 1134 1433.18 1134Z" stroke="white" stroke-opacity="0.04" stroke-width="2.78762"/>
<path d="M1433.18 1694H1343.82C1337.84 1694 1333 1698.8 1333 1704.72V1793.28C1333 1799.2 1337.84 1804 1343.82 1804H1433.18C1439.16 1804 1444 1799.2 1444 1793.28V1704.72C1444 1698.8 1439.16 1694 1433.18 1694Z" stroke="white" stroke-opacity="0.04" stroke-width="2.78762"/>
<path d="M1433.8 355H1344.2C1338.01 355 1333 360.014 1333 366.2V455.8C1333 461.986 1338.01 467 1344.2 467H1433.8C1439.99 467 1445 461.986 1445 455.8V366.2C1445 360.014 1439.99 355 1433.8 355Z" fill="url(#paint14_linear_164_10055)" fill-opacity="0.05"/>
<path d="M1434.08 578H1343.92C1337.89 578 1333 582.888 1333 588.918V679.082C1333 685.112 1337.89 690 1343.92 690H1434.08C1440.11 690 1445 685.112 1445 679.082V588.918C1445 582.888 1440.11 578 1434.08 578Z" stroke="white" stroke-opacity="0.04" stroke-width="2.78762"/>
<path d="M1433.8 798H1344.2C1338.01 798 1333 803.059 1333 809.3V899.7C1333 905.941 1338.01 911 1344.2 911H1433.8C1439.99 911 1445 905.941 1445 899.7V809.3C1445 803.059 1439.99 798 1433.8 798Z" fill="url(#paint15_linear_164_10055)" fill-opacity="0.05"/>
<path d="M1433.8 1359H1344.2C1338.01 1359 1333 1364.06 1333 1370.3V1460.7C1333 1466.94 1338.01 1472 1344.2 1472H1433.8C1439.99 1472 1445 1466.94 1445 1460.7V1370.3C1445 1364.06 1439.99 1359 1433.8 1359Z" fill="url(#paint16_linear_164_10055)" fill-opacity="0.05"/>
<path d="M1207.7 127H1117.3C1111.06 127 1106 132.014 1106 138.2V227.8C1106 233.986 1111.06 239 1117.3 239H1207.7C1213.94 239 1219 233.986 1219 227.8V138.2C1219 132.014 1213.94 127 1207.7 127Z" fill="url(#paint17_linear_164_10055)" fill-opacity="0.05"/>
<path d="M1207.7 1916H1117.3C1111.06 1916 1106 1921.01 1106 1927.2V2016.8C1106 2022.99 1111.06 2028 1117.3 2028H1207.7C1213.94 2028 1219 2022.99 1219 2016.8V1927.2C1219 1921.01 1213.94 1916 1207.7 1916Z" fill="url(#paint18_linear_164_10055)" fill-opacity="0.05"/>
<path d="M1207.7 1134H1117.3C1111.06 1134 1106 1138.97 1106 1145.1V1233.9C1106 1240.03 1111.06 1245 1117.3 1245H1207.7C1213.94 1245 1219 1240.03 1219 1233.9V1145.1C1219 1138.97 1213.94 1134 1207.7 1134Z" fill="url(#paint19_linear_164_10055)" fill-opacity="0.05"/>
<path d="M1207.7 1694H1117.3C1111.06 1694 1106 1698.97 1106 1705.1V1793.9C1106 1800.03 1111.06 1805 1117.3 1805H1207.7C1213.94 1805 1219 1800.03 1219 1793.9V1705.1C1219 1698.97 1213.94 1694 1207.7 1694Z" fill="url(#paint20_linear_164_10055)" fill-opacity="0.05"/>
<path d="M92.9 687H4.1C-2.03036 687 -7 691.97 -7 698.1V786.9C-7 793.03 -2.03036 798 4.1 798H92.9C99.0304 798 104 793.03 104 786.9V698.1C104 691.97 99.0304 687 92.9 687Z" fill="url(#paint21_linear_164_10055)" fill-opacity="0.05"/>
<path d="M1433.8 127H1344.2C1338.01 127 1333 132.014 1333 138.2V227.8C1333 233.986 1338.01 239 1344.2 239H1433.8C1439.99 239 1445 233.986 1445 227.8V138.2C1445 132.014 1439.99 127 1433.8 127Z" fill="url(#paint22_linear_164_10055)" fill-opacity="0.05"/>
<path d="M1433.8 1916H1344.2C1338.01 1916 1333 1921.01 1333 1927.2V2016.8C1333 2022.99 1338.01 2028 1344.2 2028H1433.8C1439.99 2028 1445 2022.99 1445 2016.8V1927.2C1445 1921.01 1439.99 1916 1433.8 1916Z" fill="url(#paint23_linear_164_10055)" fill-opacity="0.05"/>
<path d="M1433.7 1134H1343.3C1337.06 1134 1332 1138.97 1332 1145.1V1233.9C1332 1240.03 1337.06 1245 1343.3 1245H1433.7C1439.94 1245 1445 1240.03 1445 1233.9V1145.1C1445 1138.97 1439.94 1134 1433.7 1134Z" fill="url(#paint24_linear_164_10055)" fill-opacity="0.05"/>
<path d="M1433.7 1694H1343.3C1337.06 1694 1332 1698.97 1332 1705.1V1793.9C1332 1800.03 1337.06 1805 1343.3 1805H1433.7C1439.94 1805 1445 1800.03 1445 1793.9V1705.1C1445 1698.97 1439.94 1694 1433.7 1694Z" fill="url(#paint25_linear_164_10055)" fill-opacity="0.05"/>
<path d="M1433.18 15H1343.82C1337.84 15 1333 19.8883 1333 25.9182V116.082C1333 122.112 1337.84 127 1343.82 127H1433.18C1439.16 127 1444 122.112 1444 116.082V25.9182C1444 19.8883 1439.16 15 1433.18 15Z" stroke="white" stroke-opacity="0.04" stroke-width="2.78762"/>
<path d="M1433.18 1805H1343.82C1337.84 1805 1333 1809.89 1333 1815.92V1906.08C1333 1912.11 1337.84 1917 1343.82 1917H1433.18C1439.16 1917 1444 1912.11 1444 1906.08V1815.92C1444 1809.89 1439.16 1805 1433.18 1805Z" stroke="white" stroke-opacity="0.04" stroke-width="2.78762"/>
<path d="M1434.08 1023H1343.92C1337.89 1023 1333 1027.84 1333 1033.82V1123.18C1333 1129.16 1337.89 1134 1343.92 1134H1434.08C1440.11 1134 1445 1129.16 1445 1123.18V1033.82C1445 1027.84 1440.11 1023 1434.08 1023Z" stroke="white" stroke-opacity="0.04" stroke-width="2.78762"/>
<path d="M1434.08 1584H1343.92C1337.89 1584 1333 1588.84 1333 1594.82V1684.18C1333 1690.16 1337.89 1695 1343.92 1695H1434.08C1440.11 1695 1445 1690.16 1445 1684.18V1594.82C1445 1588.84 1440.11 1584 1434.08 1584Z" stroke="white" stroke-opacity="0.04" stroke-width="2.78762"/>
<path d="M1433.18 239H1343.82C1337.84 239 1333 243.845 1333 249.821V339.179C1333 345.155 1337.84 350 1343.82 350H1433.18C1439.16 350 1444 345.155 1444 339.179V249.821C1444 243.845 1439.16 239 1433.18 239Z" stroke="white" stroke-opacity="0.04" stroke-width="2.78762"/>
<path d="M1433.18 1246H1343.82C1337.84 1246 1333 1250.84 1333 1256.82V1346.18C1333 1352.16 1337.84 1357 1343.82 1357H1433.18C1439.16 1357 1444 1352.16 1444 1346.18V1256.82C1444 1250.84 1439.16 1246 1433.18 1246Z" stroke="white" stroke-opacity="0.04" stroke-width="2.78762"/>
</g>
<defs>
<linearGradient id="paint0_linear_164_10055" x1="716.5" y1="-67" x2="716.5" y2="2028" gradientUnits="userSpaceOnUse">
<stop stop-color="#163027"/>
<stop offset="1" stop-color="#0C1D17"/>
</linearGradient>
<linearGradient id="paint1_linear_164_10055" x1="111.443" y1="464.182" x2="134.948" y2="449.58" gradientUnits="userSpaceOnUse">
<stop stop-color="white"/>
<stop offset="1" stop-color="white" stop-opacity="0"/>
</linearGradient>
<linearGradient id="paint2_linear_164_10055" x1="61.3344" y1="966" x2="104.448" y2="915.281" gradientUnits="userSpaceOnUse">
<stop stop-color="white" stop-opacity="0"/>
<stop offset="1" stop-color="white"/>
</linearGradient>
<linearGradient id="paint3_linear_164_10055" x1="61.3344" y1="1527" x2="104.448" y2="1476.28" gradientUnits="userSpaceOnUse">
<stop stop-color="white" stop-opacity="0"/>
<stop offset="1" stop-color="white"/>
</linearGradient>
<linearGradient id="paint4_linear_164_10055" x1="61.3344" y1="183" x2="104.448" y2="132.281" gradientUnits="userSpaceOnUse">
<stop stop-color="white" stop-opacity="0"/>
<stop offset="1" stop-color="white"/>
</linearGradient>
<linearGradient id="paint5_linear_164_10055" x1="61.3344" y1="1972" x2="104.448" y2="1921.28" gradientUnits="userSpaceOnUse">
<stop stop-color="white" stop-opacity="0"/>
<stop offset="1" stop-color="white"/>
</linearGradient>
<linearGradient id="paint6_linear_164_10055" x1="61.3344" y1="1189" x2="104.448" y2="1138.28" gradientUnits="userSpaceOnUse">
<stop stop-color="white" stop-opacity="0"/>
<stop offset="1" stop-color="white"/>
</linearGradient>
<linearGradient id="paint7_linear_164_10055" x1="61.3344" y1="1749" x2="104.448" y2="1698.28" gradientUnits="userSpaceOnUse">
<stop stop-color="white" stop-opacity="0"/>
<stop offset="1" stop-color="white"/>
</linearGradient>
<linearGradient id="paint8_linear_164_10055" x1="219.648" y1="575.349" x2="282.159" y2="515.799" gradientUnits="userSpaceOnUse">
<stop stop-color="white"/>
<stop offset="1" stop-color="white" stop-opacity="0"/>
</linearGradient>
<linearGradient id="paint9_linear_164_10055" x1="219.648" y1="466.349" x2="282.159" y2="406.799" gradientUnits="userSpaceOnUse">
<stop stop-color="white"/>
<stop offset="1" stop-color="white" stop-opacity="0"/>
</linearGradient>
<linearGradient id="paint10_linear_164_10055" x1="1214.86" y1="573.255" x2="1156.57" y2="521.594" gradientUnits="userSpaceOnUse">
<stop stop-color="white"/>
<stop offset="1" stop-color="white" stop-opacity="0"/>
</linearGradient>
<linearGradient id="paint11_linear_164_10055" x1="1214.86" y1="464.255" x2="1156.57" y2="412.594" gradientUnits="userSpaceOnUse">
<stop stop-color="white"/>
<stop offset="1" stop-color="white" stop-opacity="0"/>
</linearGradient>
<linearGradient id="paint12_linear_164_10055" x1="1214.41" y1="582.2" x2="1127.96" y2="669.418" gradientUnits="userSpaceOnUse">
<stop offset="0.0078684" stop-color="white"/>
<stop offset="1" stop-color="white" stop-opacity="0"/>
</linearGradient>
<linearGradient id="paint13_linear_164_10055" x1="101.409" y1="359.2" x2="14.9628" y2="446.418" gradientUnits="userSpaceOnUse">
<stop offset="0.0078684" stop-color="white"/>
<stop offset="1" stop-color="white" stop-opacity="0"/>
</linearGradient>
<linearGradient id="paint14_linear_164_10055" x1="1337.2" y1="422.55" x2="1333" y2="463.5" gradientUnits="userSpaceOnUse">
<stop stop-color="white" stop-opacity="0"/>
<stop offset="1" stop-color="white"/>
</linearGradient>
<linearGradient id="paint15_linear_164_10055" x1="1371.15" y1="828.722" x2="1353.72" y2="889.378" gradientUnits="userSpaceOnUse">
<stop stop-color="white" stop-opacity="0"/>
<stop offset="1" stop-color="white"/>
</linearGradient>
<linearGradient id="paint16_linear_164_10055" x1="1371.15" y1="1389.72" x2="1353.72" y2="1450.38" gradientUnits="userSpaceOnUse">
<stop stop-color="white" stop-opacity="0"/>
<stop offset="1" stop-color="white"/>
</linearGradient>
<linearGradient id="paint17_linear_164_10055" x1="1144.49" y1="157.45" x2="1127.47" y2="217.73" gradientUnits="userSpaceOnUse">
<stop stop-color="white" stop-opacity="0"/>
<stop offset="1" stop-color="white"/>
</linearGradient>
<linearGradient id="paint18_linear_164_10055" x1="1144.49" y1="1946.45" x2="1127.47" y2="2006.73" gradientUnits="userSpaceOnUse">
<stop stop-color="white" stop-opacity="0"/>
<stop offset="1" stop-color="white"/>
</linearGradient>
<linearGradient id="paint19_linear_164_10055" x1="1144.49" y1="1164.18" x2="1127.75" y2="1224" gradientUnits="userSpaceOnUse">
<stop stop-color="white" stop-opacity="0"/>
<stop offset="1" stop-color="white"/>
</linearGradient>
<linearGradient id="paint20_linear_164_10055" x1="1144.49" y1="1724.18" x2="1127.75" y2="1784" gradientUnits="userSpaceOnUse">
<stop stop-color="white" stop-opacity="0"/>
<stop offset="1" stop-color="white"/>
</linearGradient>
<linearGradient id="paint21_linear_164_10055" x1="30.8094" y1="717.178" x2="13.8125" y2="776.841" gradientUnits="userSpaceOnUse">
<stop stop-color="white" stop-opacity="0"/>
<stop offset="1" stop-color="white"/>
</linearGradient>
<linearGradient id="paint22_linear_164_10055" x1="1371.15" y1="157.45" x2="1354" y2="217.65" gradientUnits="userSpaceOnUse">
<stop stop-color="white" stop-opacity="0"/>
<stop offset="1" stop-color="white"/>
</linearGradient>
<linearGradient id="paint23_linear_164_10055" x1="1371.15" y1="1946.45" x2="1354" y2="2006.65" gradientUnits="userSpaceOnUse">
<stop stop-color="white" stop-opacity="0"/>
<stop offset="1" stop-color="white"/>
</linearGradient>
<linearGradient id="paint24_linear_164_10055" x1="1370.49" y1="1164.18" x2="1353.75" y2="1224" gradientUnits="userSpaceOnUse">
<stop stop-color="white" stop-opacity="0"/>
<stop offset="1" stop-color="white"/>
</linearGradient>
<linearGradient id="paint25_linear_164_10055" x1="1370.49" y1="1724.18" x2="1353.75" y2="1784" gradientUnits="userSpaceOnUse">
<stop stop-color="white" stop-opacity="0"/>
<stop offset="1" stop-color="white"/>
</linearGradient>
<clipPath id="clip0_164_10055">
<rect width="1440" height="2028" fill="white"/>
</clipPath>
</defs>
</svg>
