<svg width="1446" height="2029" viewBox="0 0 1446 2029" fill="none" xmlns="http://www.w3.org/2000/svg">
<path d="M1445 0H0V2029H1445V0Z" fill="url(#paint0_linear_198_3804)"/>
<rect x="167.5" y="319.5" width="159" height="159" rx="15.5" stroke="white" stroke-opacity="0.04"/>
<rect x="167.5" y="1275.5" width="159" height="159" rx="15.5" stroke="white" stroke-opacity="0.04"/>
<rect x="167.5" y="638.5" width="159" height="159" rx="15.5" stroke="white" stroke-opacity="0.04"/>
<rect x="167.5" y="1594.5" width="159" height="159" rx="15.5" stroke="white" stroke-opacity="0.04"/>
<rect x="805.5" y="320.5" width="159" height="159" rx="15.5" stroke="white" stroke-opacity="0.04"/>
<rect x="805.5" y="1276.5" width="159" height="159" rx="15.5" stroke="white" stroke-opacity="0.04"/>
<rect x="805.5" y="639.5" width="159" height="159" rx="15.5" stroke="white" stroke-opacity="0.04"/>
<rect x="805.5" y="1595.5" width="159" height="159" rx="15.5" stroke="white" stroke-opacity="0.04"/>
<rect x="485.5" y="319.5" width="159" height="159" rx="15.5" stroke="white" stroke-opacity="0.04"/>
<rect x="485.5" y="1275.5" width="159" height="159" rx="15.5" stroke="white" stroke-opacity="0.04"/>
<rect x="485.5" y="638.5" width="159" height="159" rx="15.5" stroke="white" stroke-opacity="0.04"/>
<rect x="485.5" y="1594.5" width="159" height="159" rx="15.5" stroke="white" stroke-opacity="0.04"/>
<rect x="1123.5" y="1.5" width="159" height="159" rx="15.5" stroke="white" stroke-opacity="0.04"/>
<rect x="1123.5" y="957.5" width="159" height="159" rx="15.5" stroke="white" stroke-opacity="0.04"/>
<rect x="1123.5" y="320.5" width="159" height="159" rx="15.5" stroke="white" stroke-opacity="0.04"/>
<rect x="1123.5" y="1276.5" width="159" height="159" rx="15.5" stroke="white" stroke-opacity="0.04"/>
<rect x="1123.5" y="639.5" width="159" height="159" rx="15.5" stroke="white" stroke-opacity="0.04"/>
<rect x="1123.5" y="1595.5" width="159" height="159" rx="15.5" stroke="white" stroke-opacity="0.04"/>
<rect x="167.5" y="160.5" width="159" height="159" rx="15.5" stroke="white" stroke-opacity="0.04"/>
<rect x="167.5" y="1116.5" width="159" height="159" rx="15.5" stroke="white" stroke-opacity="0.04"/>
<rect x="167.5" y="479.5" width="159" height="159" rx="15.5" stroke="white" stroke-opacity="0.04"/>
<rect x="167.5" y="1435.5" width="159" height="159" rx="15.5" stroke="white" stroke-opacity="0.04"/>
<rect x="167.5" y="798.5" width="159" height="159" rx="15.5" stroke="white" stroke-opacity="0.04"/>
<rect x="167.5" y="1754.5" width="159" height="159" rx="15.5" stroke="white" stroke-opacity="0.04"/>
<rect x="805.5" y="480.5" width="159" height="159" rx="15.5" stroke="white" stroke-opacity="0.04"/>
<rect x="805.5" y="1436.5" width="159" height="159" rx="15.5" stroke="white" stroke-opacity="0.04"/>
<rect x="805.5" y="799.5" width="159" height="159" rx="15.5" stroke="white" stroke-opacity="0.04"/>
<rect x="805.5" y="1755.5" width="159" height="159" rx="15.5" stroke="white" stroke-opacity="0.04"/>
<rect x="485.5" y="479.5" width="159" height="159" rx="15.5" stroke="white" stroke-opacity="0.04"/>
<rect x="485.5" y="1435.5" width="159" height="159" rx="15.5" stroke="white" stroke-opacity="0.04"/>
<rect x="485.5" y="798.5" width="159" height="159" rx="15.5" stroke="white" stroke-opacity="0.04"/>
<rect x="485.5" y="1754.5" width="159" height="159" rx="15.5" stroke="white" stroke-opacity="0.04"/>
<rect x="1123.5" y="161.5" width="159" height="159" rx="15.5" stroke="white" stroke-opacity="0.04"/>
<rect x="1123.5" y="1117.5" width="159" height="159" rx="15.5" stroke="white" stroke-opacity="0.04"/>
<rect x="1123.5" y="480.5" width="159" height="159" rx="15.5" stroke="white" stroke-opacity="0.04"/>
<rect x="1123.5" y="1436.5" width="159" height="159" rx="15.5" stroke="white" stroke-opacity="0.04"/>
<rect x="1123.5" y="799.5" width="159" height="159" rx="15.5" stroke="white" stroke-opacity="0.04"/>
<rect x="1123.5" y="1755.5" width="159" height="159" rx="15.5" stroke="white" stroke-opacity="0.04"/>
<rect x="8" width="160" height="160" rx="16" fill="url(#paint1_linear_198_3804)" fill-opacity="0.05"/>
<rect x="8" y="956" width="160" height="160" rx="16" fill="url(#paint2_linear_198_3804)" fill-opacity="0.05"/>
<rect x="8.5" y="319.5" width="159" height="159" rx="15.5" stroke="white" stroke-opacity="0.04"/>
<rect x="8.5" y="1275.5" width="159" height="159" rx="15.5" stroke="white" stroke-opacity="0.04"/>
<rect x="8" y="638" width="160" height="160" rx="16" fill="url(#paint3_linear_198_3804)" fill-opacity="0.05"/>
<rect x="8" y="1594" width="160" height="160" rx="16" fill="url(#paint4_linear_198_3804)" fill-opacity="0.05"/>
<rect x="644.5" y="638.5" width="159" height="159" rx="15.5" stroke="white" stroke-opacity="0.04"/>
<rect x="644.5" y="1594.5" width="159" height="159" rx="15.5" stroke="white" stroke-opacity="0.04"/>
<rect x="326.5" y="0.5" width="159" height="159" rx="15.5" stroke="url(#paint5_linear_198_3804)" stroke-opacity="0.04"/>
<rect x="326.5" y="956.5" width="159" height="159" rx="15.5" stroke="url(#paint6_linear_198_3804)" stroke-opacity="0.04"/>
<rect x="167.5" y="0.5" width="159" height="159" rx="15.5" stroke="white" stroke-opacity="0.04"/>
<rect x="167.5" y="956.5" width="159" height="159" rx="15.5" stroke="white" stroke-opacity="0.04"/>
<rect x="326" y="319" width="160" height="160" rx="16" fill="url(#paint7_linear_198_3804)" fill-opacity="0.05"/>
<rect x="326" y="1275" width="160" height="160" rx="16" fill="url(#paint8_linear_198_3804)" fill-opacity="0.05"/>
<rect x="326.5" y="638.5" width="159" height="159" rx="15.5" stroke="white" stroke-opacity="0.04"/>
<rect x="326.5" y="1594.5" width="159" height="159" rx="15.5" stroke="white" stroke-opacity="0.04"/>
<rect x="964.5" y="1.5" width="159" height="159" rx="15.5" stroke="url(#paint9_linear_198_3804)" stroke-opacity="0.04"/>
<rect x="964.5" y="957.5" width="159" height="159" rx="15.5" stroke="url(#paint10_linear_198_3804)" stroke-opacity="0.04"/>
<rect x="964.5" y="320.5" width="159" height="159" rx="15.5" stroke="white" stroke-opacity="0.04"/>
<rect x="964.5" y="1276.5" width="159" height="159" rx="15.5" stroke="white" stroke-opacity="0.04"/>
<rect x="964.5" y="639.5" width="159" height="159" rx="15.5" stroke="white" stroke-opacity="0.04"/>
<rect x="964.5" y="1595.5" width="159" height="159" rx="15.5" stroke="white" stroke-opacity="0.04"/>
<rect x="8.5" y="160.5" width="159" height="159" rx="15.5" stroke="white" stroke-opacity="0.04"/>
<rect x="8.5" y="1116.5" width="159" height="159" rx="15.5" stroke="white" stroke-opacity="0.04"/>
<rect x="8.5" y="479.5" width="159" height="159" rx="15.5" stroke="white" stroke-opacity="0.04"/>
<rect x="8.5" y="1435.5" width="159" height="159" rx="15.5" stroke="white" stroke-opacity="0.04"/>
<rect x="8.5" y="798.5" width="159" height="159" rx="15.5" stroke="white" stroke-opacity="0.04"/>
<rect x="8.5" y="1754.5" width="159" height="159" rx="15.5" stroke="white" stroke-opacity="0.04"/>
<rect x="644.5" y="798.5" width="159" height="159" rx="15.5" stroke="white" stroke-opacity="0.04"/>
<rect x="644.5" y="1754.5" width="159" height="159" rx="15.5" stroke="white" stroke-opacity="0.04"/>
<rect x="326.5" y="160.5" width="159" height="159" rx="15.5" stroke="white" stroke-opacity="0.04"/>
<rect x="326.5" y="1116.5" width="159" height="159" rx="15.5" stroke="white" stroke-opacity="0.04"/>
<rect x="326.5" y="479.5" width="159" height="159" rx="15.5" stroke="white" stroke-opacity="0.04"/>
<rect x="326.5" y="1435.5" width="159" height="159" rx="15.5" stroke="white" stroke-opacity="0.04"/>
<rect x="326.5" y="798.5" width="159" height="159" rx="15.5" stroke="white" stroke-opacity="0.04"/>
<rect x="326.5" y="1754.5" width="159" height="159" rx="15.5" stroke="white" stroke-opacity="0.04"/>
<rect x="964" y="161" width="160" height="160" rx="16" fill="url(#paint11_linear_198_3804)" fill-opacity="0.05"/>
<rect x="964" y="1117" width="160" height="160" rx="16" fill="url(#paint12_linear_198_3804)" fill-opacity="0.05"/>
<rect x="964.5" y="480.5" width="159" height="159" rx="15.5" stroke="white" stroke-opacity="0.04"/>
<rect x="964.5" y="1436.5" width="159" height="159" rx="15.5" stroke="white" stroke-opacity="0.04"/>
<rect x="964.5" y="799.5" width="159" height="159" rx="15.5" stroke="white" stroke-opacity="0.04"/>
<rect x="964.5" y="1755.5" width="159" height="159" rx="15.5" stroke="white" stroke-opacity="0.04"/>
<rect x="1282.5" y="1.5" width="159" height="159" rx="15.5" stroke="white" stroke-opacity="0.04"/>
<rect x="1282.5" y="957.5" width="159" height="159" rx="15.5" stroke="white" stroke-opacity="0.04"/>
<rect x="1282.5" y="320.5" width="159" height="159" rx="15.5" stroke="white" stroke-opacity="0.04"/>
<rect x="1282.5" y="1276.5" width="159" height="159" rx="15.5" stroke="white" stroke-opacity="0.04"/>
<rect x="1282.5" y="639.5" width="159" height="159" rx="15.5" stroke="white" stroke-opacity="0.04"/>
<rect x="1282.5" y="1595.5" width="159" height="159" rx="15.5" stroke="white" stroke-opacity="0.04"/>
<rect x="1282.5" y="161.5" width="159" height="159" rx="15.5" stroke="white" stroke-opacity="0.04"/>
<rect x="1282.5" y="1117.5" width="159" height="159" rx="15.5" stroke="white" stroke-opacity="0.04"/>
<rect x="1282" y="480" width="160" height="160" rx="16" fill="url(#paint13_linear_198_3804)" fill-opacity="0.05"/>
<rect x="1282" y="1436" width="160" height="160" rx="16" fill="url(#paint14_linear_198_3804)" fill-opacity="0.05"/>
<rect x="1282.5" y="799.5" width="159" height="159" rx="15.5" stroke="white" stroke-opacity="0.04"/>
<rect x="1282.5" y="1755.5" width="159" height="159" rx="15.5" stroke="white" stroke-opacity="0.04"/>
<defs>
<linearGradient id="paint0_linear_198_3804" x1="722.5" y1="0" x2="722.5" y2="2029" gradientUnits="userSpaceOnUse">
<stop stop-color="#163027"/>
<stop offset="1" stop-color="#0C1D17"/>
</linearGradient>
<linearGradient id="paint1_linear_198_3804" x1="161.5" y1="6" x2="38" y2="129.5" gradientUnits="userSpaceOnUse">
<stop stop-color="white"/>
<stop offset="0.518426" stop-color="white" stop-opacity="0"/>
</linearGradient>
<linearGradient id="paint2_linear_198_3804" x1="161.5" y1="962" x2="38" y2="1085.5" gradientUnits="userSpaceOnUse">
<stop stop-color="white"/>
<stop offset="0.518426" stop-color="white" stop-opacity="0"/>
</linearGradient>
<linearGradient id="paint3_linear_198_3804" x1="106.5" y1="718" x2="168" y2="645" gradientUnits="userSpaceOnUse">
<stop stop-color="white" stop-opacity="0"/>
<stop offset="1" stop-color="white"/>
</linearGradient>
<linearGradient id="paint4_linear_198_3804" x1="106.5" y1="1674" x2="168" y2="1601" gradientUnits="userSpaceOnUse">
<stop stop-color="white" stop-opacity="0"/>
<stop offset="1" stop-color="white"/>
</linearGradient>
<linearGradient id="paint5_linear_198_3804" x1="326" y1="160" x2="415.5" y2="75.5" gradientUnits="userSpaceOnUse">
<stop stop-color="white"/>
<stop offset="1" stop-color="white" stop-opacity="0"/>
</linearGradient>
<linearGradient id="paint6_linear_198_3804" x1="326" y1="1116" x2="415.5" y2="1031.5" gradientUnits="userSpaceOnUse">
<stop stop-color="white"/>
<stop offset="1" stop-color="white" stop-opacity="0"/>
</linearGradient>
<linearGradient id="paint7_linear_198_3804" x1="479.5" y1="325" x2="261.5" y2="521.5" gradientUnits="userSpaceOnUse">
<stop stop-color="white" stop-opacity="0"/>
<stop offset="1" stop-color="white"/>
</linearGradient>
<linearGradient id="paint8_linear_198_3804" x1="479.5" y1="1281" x2="261.5" y2="1477.5" gradientUnits="userSpaceOnUse">
<stop stop-color="white" stop-opacity="0"/>
<stop offset="1" stop-color="white"/>
</linearGradient>
<linearGradient id="paint9_linear_198_3804" x1="1119" y1="158" x2="1035.5" y2="84" gradientUnits="userSpaceOnUse">
<stop stop-color="white"/>
<stop offset="1" stop-color="white" stop-opacity="0"/>
</linearGradient>
<linearGradient id="paint10_linear_198_3804" x1="1119" y1="1114" x2="1035.5" y2="1040" gradientUnits="userSpaceOnUse">
<stop stop-color="white"/>
<stop offset="1" stop-color="white" stop-opacity="0"/>
</linearGradient>
<linearGradient id="paint11_linear_198_3804" x1="1117.5" y1="167" x2="994" y2="290.5" gradientUnits="userSpaceOnUse">
<stop offset="0.00786839" stop-color="white"/>
<stop offset="1" stop-color="white" stop-opacity="0"/>
</linearGradient>
<linearGradient id="paint12_linear_198_3804" x1="1117.5" y1="1123" x2="994" y2="1246.5" gradientUnits="userSpaceOnUse">
<stop offset="0.00786839" stop-color="white"/>
<stop offset="1" stop-color="white" stop-opacity="0"/>
</linearGradient>
<linearGradient id="paint13_linear_198_3804" x1="1336.5" y1="523.5" x2="1312" y2="609.5" gradientUnits="userSpaceOnUse">
<stop stop-color="white" stop-opacity="0"/>
<stop offset="1" stop-color="white"/>
</linearGradient>
<linearGradient id="paint14_linear_198_3804" x1="1336.5" y1="1479.5" x2="1312" y2="1565.5" gradientUnits="userSpaceOnUse">
<stop stop-color="white" stop-opacity="0"/>
<stop offset="1" stop-color="white"/>
</linearGradient>
</defs>
</svg>
